<svg width="24.000000" height="24.000000" viewBox="0 0 24 24" fill="none" xmlns="http://www.w3.org/2000/svg" xmlns:xlink="http://www.w3.org/1999/xlink">
	<desc>
			Created with Pixso.
	</desc>
	<defs>
		<clipPath id="clip5661_1854">
			<rect id="arrow-ios-Up" width="24.000000" height="24.000000" fill="white" fill-opacity="0"/>
		</clipPath>
	</defs>
	<rect id="arrow-ios-Up" width="24.000000" height="24.000000" fill="#FFFFFF" fill-opacity="0"/>
	<g clip-path="url(#clip5661_1854)">
		<g opacity="0.000000">
			<path id="Vector" d="M0 24L0 0L24 0L24 24L0 24Z" fill="#000000" fill-opacity="1.000000" fill-rule="evenodd"/>
		</g>
		<path id="Vector" d="M19.54 14.51C19.54 14.74 19.46 14.97 19.31 15.15C19.22 15.25 19.12 15.33 19 15.4C18.89 15.46 18.76 15.49 18.63 15.51C18.5 15.52 18.37 15.5 18.24 15.47C18.11 15.43 18 15.36 17.9 15.28L12.54 10.8L7.17 15.12C7.06 15.2 6.95 15.26 6.82 15.3C6.69 15.34 6.56 15.35 6.43 15.34C6.3 15.32 6.17 15.28 6.06 15.22C5.94 15.16 5.84 15.07 5.76 14.97C5.67 14.87 5.6 14.74 5.55 14.61C5.51 14.48 5.5 14.34 5.51 14.21C5.53 14.07 5.57 13.94 5.64 13.82C5.7 13.7 5.8 13.59 5.91 13.51L11.91 8.68C12.09 8.53 12.31 8.45 12.54 8.45C12.77 8.45 13 8.53 13.18 8.68L19.18 13.68C19.3 13.78 19.39 13.91 19.46 14.05C19.52 14.2 19.55 14.35 19.54 14.51Z" fill="#000000" fill-opacity="1.000000" fill-rule="nonzero"/>
	</g>
</svg>
