<svg width="24.000000" height="24.000000" viewBox="0 0 24 24" fill="none" xmlns="http://www.w3.org/2000/svg" xmlns:xlink="http://www.w3.org/1999/xlink">
	<desc>
			Created with Pixso.
	</desc>
	<defs>
		<clipPath id="clip5661_1849">
			<rect id="arrow-ios-forward" width="24.000000" height="24.000000" fill="white" fill-opacity="0"/>
		</clipPath>
	</defs>
	<rect id="arrow-ios-forward" width="24.000000" height="24.000000" fill="#FFFFFF" fill-opacity="0"/>
	<g clip-path="url(#clip5661_1849)">
		<g opacity="0.000000">
			<path id="Vector" d="M0 24L0 0L24 0L24 24L0 24Z" fill="#000000" fill-opacity="1.000000" fill-rule="evenodd"/>
		</g>
		<path id="Vector" d="M10 19C9.76 19 9.53 18.91 9.35 18.77C9.25 18.68 9.17 18.58 9.11 18.46C9.05 18.35 9.01 18.22 9 18.09C8.99 17.96 9 17.82 9.04 17.7C9.08 17.57 9.14 17.46 9.22 17.36L13.71 12L9.39 6.63C9.3 6.52 9.24 6.41 9.2 6.28C9.17 6.15 9.15 6.02 9.17 5.89C9.18 5.76 9.22 5.63 9.28 5.52C9.35 5.4 9.43 5.3 9.54 5.22C9.64 5.12 9.76 5.06 9.89 5.01C10.02 4.97 10.16 4.96 10.3 4.97C10.43 4.99 10.57 5.03 10.69 5.1C10.81 5.16 10.91 5.25 11 5.37L15.83 11.37C15.97 11.54 16.05 11.77 16.05 12C16.05 12.23 15.97 12.46 15.83 12.64L10.83 18.64C10.72 18.76 10.6 18.85 10.45 18.91C10.31 18.98 10.15 19 10 19Z" fill="#000000" fill-opacity="1.000000" fill-rule="nonzero"/>
	</g>
</svg>
