<svg width="24.000000" height="24.000000" viewBox="0 0 24 24" fill="none" xmlns="http://www.w3.org/2000/svg" xmlns:xlink="http://www.w3.org/1999/xlink">
	<desc>
			Created with Pixso.
	</desc>
	<defs>
		<clipPath id="clip5661_1754">
			<rect id="arrow-ios-Down-outline" width="24.000000" height="24.000000" fill="white" fill-opacity="0"/>
		</clipPath>
	</defs>
	<rect id="arrow-ios-Down-outline" width="24.000000" height="24.000000" fill="#FFFFFF" fill-opacity="0"/>
	<g clip-path="url(#clip5661_1754)">
		<g opacity="0.000000">
			<path id="Vector" d="M0 24L0 0L24 0L24 24L0 24Z" fill="#000000" fill-opacity="1.000000" fill-rule="evenodd"/>
		</g>
		<path id="Vector" d="M5.51 9.45C5.51 9.22 5.59 8.99 5.74 8.81C5.82 8.71 5.93 8.63 6.04 8.57C6.16 8.51 6.29 8.47 6.42 8.46C6.55 8.44 6.68 8.46 6.81 8.5C6.93 8.54 7.05 8.6 7.15 8.68L12.51 13.16L17.88 8.84C17.98 8.76 18.1 8.7 18.23 8.66C18.35 8.62 18.48 8.61 18.62 8.63C18.75 8.64 18.87 8.68 18.99 8.74C19.1 8.81 19.21 8.89 19.29 8.99C19.38 9.1 19.45 9.22 19.49 9.35C19.53 9.48 19.55 9.62 19.53 9.76C19.52 9.89 19.48 10.03 19.41 10.15C19.34 10.27 19.25 10.37 19.14 10.45L13.14 15.28C12.96 15.43 12.74 15.51 12.5 15.51C12.27 15.51 12.05 15.43 11.87 15.28L5.87 10.28C5.75 10.18 5.65 10.06 5.59 9.91C5.53 9.77 5.5 9.61 5.51 9.45Z" fill="#000000" fill-opacity="1.000000" fill-rule="nonzero"/>
	</g>
</svg>
