<svg width="24.000000" height="24.000000" viewBox="0 0 24 24" fill="none" xmlns="http://www.w3.org/2000/svg" xmlns:xlink="http://www.w3.org/1999/xlink">
	<desc>
			Created with Pixso.
	</desc>
	<defs>
		<clipPath id="clip5661_2037">
			<rect id="arrow-back-outline" width="24.000000" height="24.000000" fill="white" fill-opacity="0"/>
		</clipPath>
	</defs>
	<rect id="arrow-back-outline" width="24.000000" height="24.000000" fill="#FFFFFF" fill-opacity="0"/>
	<g clip-path="url(#clip5661_2037)">
		<g opacity="0.000000">
			<path id="Vector" d="M24 0L24 24L0 24L0 0L24 0Z" fill="#000000" fill-opacity="1.000000" fill-rule="evenodd"/>
		</g>
		<path id="Vector" d="M19 11L7.14 11L10.77 6.64C10.93 6.43 11.02 6.17 10.99 5.9C10.97 5.64 10.84 5.39 10.64 5.23C10.43 5.06 10.17 4.97 9.9 5C9.64 5.02 9.39 5.15 9.22 5.36L4.23 11.36C4.19 11.4 4.16 11.45 4.14 11.51C4.14 11.56 4.14 11.59 4.07 11.64C4.02 11.75 4 11.87 4 12C4 12.12 4.02 12.24 4.07 12.36C4.07 12.41 4.07 12.44 4.14 12.49C4.16 12.54 4.19 12.59 4.23 12.64L9.22 18.64C9.32 18.75 9.44 18.84 9.57 18.9C9.7 18.96 9.85 19 10 19C10.23 19 10.46 18.91 10.64 18.77C10.74 18.68 10.82 18.58 10.88 18.46C10.94 18.35 10.98 18.22 10.99 18.09C11 17.96 10.99 17.82 10.95 17.7C10.91 17.57 10.85 17.46 10.77 17.36L7.14 13L19 13C19.26 13 19.51 12.89 19.7 12.7C19.89 12.51 20 12.26 20 12C20 11.73 19.89 11.48 19.7 11.29C19.51 11.1 19.26 11 19 11Z" fill="#000000" fill-opacity="1.000000" fill-rule="nonzero"/>
	</g>
</svg>
