<svg width="24.000000" height="24.000000" viewBox="0 0 24 24" fill="none" xmlns="http://www.w3.org/2000/svg" xmlns:xlink="http://www.w3.org/1999/xlink">
	<desc>
			Created with Pixso.
	</desc>
	<defs>
		<clipPath id="clip5661_2042">
			<rect id="arrow-forward-outline" width="24.000000" height="24.000000" fill="white" fill-opacity="0"/>
		</clipPath>
	</defs>
	<rect id="arrow-forward-outline" width="24.000000" height="24.000000" fill="#FFFFFF" fill-opacity="0"/>
	<g clip-path="url(#clip5661_2042)">
		<g opacity="0.000000">
			<path id="Vector" d="M0 24L0 0L24 0L24 24L0 24Z" fill="#000000" fill-opacity="1.000000" fill-rule="evenodd"/>
		</g>
		<path id="Vector" d="M5 13L16.86 13L13.23 17.36C13.14 17.46 13.08 17.57 13.04 17.7C13 17.82 12.99 17.96 13 18.09C13.02 18.35 13.15 18.6 13.36 18.77C13.56 18.93 13.82 19.02 14.09 18.99C14.35 18.97 14.6 18.84 14.77 18.64L19.77 12.64C19.8 12.59 19.83 12.54 19.86 12.49C19.86 12.44 19.91 12.41 19.93 12.36C19.97 12.24 19.99 12.12 20 12C19.99 11.87 19.97 11.75 19.93 11.64C19.93 11.59 19.87 11.56 19.86 11.51C19.83 11.45 19.8 11.4 19.77 11.36L14.77 5.36C14.67 5.24 14.55 5.15 14.42 5.09C14.29 5.03 14.14 4.99 14 5C13.76 4.99 13.53 5.08 13.36 5.23C13.25 5.31 13.17 5.41 13.11 5.53C13.05 5.64 13.01 5.77 13 5.9C12.99 6.03 13 6.17 13.04 6.29C13.08 6.42 13.14 6.53 13.23 6.64L16.86 11L5 11C4.73 11 4.48 11.1 4.29 11.29C4.1 11.48 4 11.73 4 12C4 12.26 4.1 12.51 4.29 12.7C4.48 12.89 4.73 13 5 13Z" fill="#000000" fill-opacity="1.000000" fill-rule="nonzero"/>
	</g>
</svg>
