<svg width="24.000000" height="24.000000" viewBox="0 0 24 24" fill="none" xmlns="http://www.w3.org/2000/svg" xmlns:xlink="http://www.w3.org/1999/xlink">
	<desc>
			Created with Pixso.
	</desc>
	<defs>
		<clipPath id="clip5661_1663">
			<rect id="Block" width="24.000000" height="24.000000" fill="white" fill-opacity="0"/>
		</clipPath>
	</defs>
	<rect id="Block" width="24.000000" height="24.000000" fill="#FFFFFF" fill-opacity="0"/>
	<g clip-path="url(#clip5661_1663)">
		<g opacity="0.000000">
			<path id="Vector" d="M0 0L24 0L24 24L0 24L0 0Z" fill="#000000" fill-opacity="1.000000" fill-rule="evenodd"/>
		</g>
		<path id="Vector" d="M12 2C10.02 2 8.08 2.58 6.44 3.68C4.79 4.78 3.51 6.34 2.76 8.17C2 10 1.8 12.01 2.19 13.95C2.57 15.89 3.53 17.67 4.92 19.07C6.32 20.46 8.1 21.42 10.04 21.8C11.98 22.19 13.99 21.99 15.82 21.23C17.65 20.48 19.21 19.2 20.31 17.55C21.41 15.91 22 13.97 22 12C22 10.68 21.74 9.38 21.23 8.17C20.73 6.95 19.99 5.85 19.07 4.92C18.14 4 17.04 3.26 15.82 2.76C14.61 2.25 13.31 2 12 2ZM12 20C10.41 20 8.87 19.53 7.55 18.65C6.23 17.77 5.21 16.52 4.6 15.06C4 13.59 3.84 11.99 4.15 10.43C4.46 8.88 5.22 7.46 6.34 6.34C7.46 5.22 8.88 4.46 10.43 4.15C11.99 3.84 13.59 4 15.06 4.6C16.52 5.21 17.77 6.23 18.65 7.55C19.53 8.87 20 10.41 20 12C20 14.12 19.15 16.15 17.65 17.65C16.15 19.15 14.12 20 12 20Z" fill="#000000" fill-opacity="1.000000" fill-rule="nonzero"/>
		<line id="Line 1" x1="7.043137" y1="19.362091" x2="17.043137" y2="4.362091" stroke="#000000" stroke-opacity="1.000000" stroke-width="2.300000"/>
	</g>
</svg>
