<svg width="24.000000" height="24.000000" viewBox="0 0 24 24" fill="none" xmlns="http://www.w3.org/2000/svg" xmlns:xlink="http://www.w3.org/1999/xlink">
	<desc>
			Created with Pixso.
	</desc>
	<defs>
		<clipPath id="clip5661_1990">
			<rect id="calendar" width="24.000000" height="24.000000" fill="white" fill-opacity="0"/>
		</clipPath>
	</defs>
	<rect id="calendar" width="24.000000" height="24.000000" fill="#FFFFFF" fill-opacity="0"/>
	<g clip-path="url(#clip5661_1990)">
		<g opacity="0.000000">
			<path id="Vector" d="M0 0L24 0L24 24L0 24L0 0Z" fill="#000000" fill-opacity="1.000000" fill-rule="evenodd"/>
		</g>
		<path id="Vector" d="M18 4L17 4L17 3C17 2.73 16.89 2.48 16.7 2.29C16.51 2.1 16.26 2 16 2C15.73 2 15.48 2.1 15.29 2.29C15.1 2.48 15 2.73 15 3L15 4L9 4L9 3C9 2.73 8.89 2.48 8.7 2.29C8.51 2.1 8.26 2 8 2C7.73 2 7.48 2.1 7.29 2.29C7.1 2.48 7 2.73 7 3L7 4L6 4C5.2 4 4.44 4.31 3.87 4.87C3.31 5.44 3 6.2 3 7L3 19C3 19.79 3.31 20.55 3.87 21.12C4.44 21.68 5.2 22 6 22L18 22C18.79 22 19.55 21.68 20.12 21.12C20.68 20.55 21 19.79 21 19L21 7C21 6.2 20.68 5.44 20.12 4.87C19.55 4.31 18.79 4 18 4ZM8 17C7.8 17 7.6 16.94 7.44 16.83C7.27 16.72 7.15 16.56 7.07 16.38C7 16.2 6.98 15.99 7.01 15.8C7.05 15.61 7.15 15.43 7.29 15.29C7.43 15.15 7.61 15.05 7.8 15.01C7.99 14.98 8.19 15 8.38 15.07C8.56 15.15 8.72 15.28 8.83 15.44C8.94 15.6 9 15.8 9 16C9 16.26 8.89 16.51 8.7 16.7C8.51 16.89 8.26 17 8 17ZM16 17L12 17C11.73 17 11.48 16.89 11.29 16.7C11.1 16.51 11 16.26 11 16C11 15.73 11.1 15.48 11.29 15.29C11.48 15.1 11.73 15 12 15L16 15C16.26 15 16.51 15.1 16.7 15.29C16.89 15.48 17 15.73 17 16C17 16.26 16.89 16.51 16.7 16.7C16.51 16.89 16.26 17 16 17ZM19 11L5 11L5 7C5 6.73 5.1 6.48 5.29 6.29C5.48 6.1 5.73 6 6 6L7 6L7 7C7 7.26 7.1 7.51 7.29 7.7C7.48 7.89 7.73 8 8 8C8.26 8 8.51 7.89 8.7 7.7C8.89 7.51 9 7.26 9 7L9 6L15 6L15 7C15 7.26 15.1 7.51 15.29 7.7C15.48 7.89 15.73 8 16 8C16.26 8 16.51 7.89 16.7 7.7C16.89 7.51 17 7.26 17 7L17 6L18 6C18.26 6 18.51 6.1 18.7 6.29C18.89 6.48 19 6.73 19 7L19 11Z" fill="#000000" fill-opacity="1.000000" fill-rule="nonzero"/>
	</g>
</svg>
