<svg width="24.000000" height="24.000000" viewBox="0 0 24 24" fill="none" xmlns="http://www.w3.org/2000/svg" xmlns:xlink="http://www.w3.org/1999/xlink">
	<desc>
			Created with Pixso.
	</desc>
	<defs>
		<clipPath id="clip5661_1865">
			<rect id="close" width="24.000000" height="24.000000" fill="white" fill-opacity="0"/>
		</clipPath>
	</defs>
	<rect id="close" width="24.000000" height="24.000000" fill="#FFFFFF" fill-opacity="0"/>
	<g clip-path="url(#clip5661_1865)">
		<g opacity="0.000000">
			<path id="Vector" d="M24 24L0 24L0 0L24 0L24 24Z" fill="#000000" fill-opacity="1.000000" fill-rule="evenodd"/>
		</g>
		<path id="Vector" d="M13.41 12L17.7 7.71C17.89 7.52 18 7.26 18 7C18 6.73 17.89 6.47 17.7 6.29C17.52 6.1 17.26 5.99 17 5.99C16.73 5.99 16.47 6.1 16.29 6.29L12 10.59L7.71 6.29C7.52 6.1 7.26 5.99 7 5.99C6.73 5.99 6.47 6.1 6.29 6.29C6.1 6.47 5.99 6.73 5.99 7C5.99 7.26 6.1 7.52 6.29 7.71L10.59 12L6.29 16.29C6.19 16.38 6.12 16.49 6.07 16.61C6.02 16.73 5.99 16.86 5.99 17C5.99 17.13 6.02 17.26 6.07 17.38C6.12 17.5 6.19 17.61 6.29 17.7C6.38 17.8 6.49 17.87 6.61 17.92C6.73 17.97 6.86 18 7 18C7.13 18 7.26 17.97 7.38 17.92C7.5 17.87 7.61 17.8 7.71 17.7L12 13.41L16.29 17.7C16.38 17.8 16.49 17.87 16.61 17.92C16.73 17.97 16.86 18 17 18C17.13 18 17.26 17.97 17.38 17.92C17.5 17.87 17.61 17.8 17.7 17.7C17.8 17.61 17.87 17.5 17.92 17.38C17.97 17.26 18 17.13 18 17C18 16.86 17.97 16.73 17.92 16.61C17.87 16.49 17.8 16.38 17.7 16.29L13.41 12Z" fill="#000000" fill-opacity="1.000000" fill-rule="nonzero"/>
	</g>
</svg>
