<svg width="24.000000" height="24.000000" viewBox="0 0 24 24" fill="none" xmlns="http://www.w3.org/2000/svg" xmlns:xlink="http://www.w3.org/1999/xlink">
	<desc>
			Created with Pixso.
	</desc>
	<defs>
		<clipPath id="clip5661_2059">
			<rect id="color-palette-outline" width="24.000000" height="24.000000" fill="white" fill-opacity="0"/>
		</clipPath>
	</defs>
	<rect id="color-palette-outline" width="24.000000" height="24.000000" fill="#FFFFFF" fill-opacity="0"/>
	<g clip-path="url(#clip5661_2059)">
		<g opacity="0.000000">
			<path id="Vector" d="M0 0L24 0L24 24L0 24L0 0Z" fill="#000000" fill-opacity="1.000000" fill-rule="evenodd"/>
		</g>
		<path id="Vector" d="M19.54 5.08C18.53 4.08 17.34 3.29 16.03 2.77C14.72 2.24 13.32 1.97 11.91 2C9.25 1.99 6.71 3.04 4.83 4.91C2.95 6.78 1.89 9.32 1.88 11.97C1.87 14.62 2.92 17.17 4.79 19.05C6.66 20.93 9.2 21.99 11.86 22C12.43 22 12.99 21.82 13.44 21.48C13.9 21.14 14.23 20.66 14.39 20.11C14.48 19.71 14.48 19.29 14.38 18.89C14.28 18.5 14.09 18.13 13.82 17.83C13.75 17.75 13.71 17.66 13.7 17.57C13.68 17.48 13.7 17.38 13.73 17.29C13.77 17.2 13.84 17.13 13.92 17.08C14 17.02 14.09 17 14.19 17L15.84 17C17.39 17 18.89 16.42 20.03 15.37C21.17 14.32 21.87 12.87 22 11.33C22.03 10.17 21.83 9.02 21.41 7.95C20.99 6.87 20.35 5.89 19.54 5.08ZM15.88 15L14.23 15C13.74 14.99 13.27 15.13 12.87 15.39C12.46 15.65 12.14 16.02 11.94 16.46C11.74 16.9 11.68 17.39 11.75 17.86C11.82 18.34 12.03 18.79 12.36 19.15C12.42 19.21 12.46 19.29 12.48 19.37C12.5 19.46 12.5 19.55 12.48 19.64C12.43 19.85 12.2 19.98 11.89 20C10.75 19.98 9.63 19.72 8.6 19.24C7.57 18.76 6.66 18.07 5.92 17.21C5.18 16.34 4.63 15.34 4.31 14.25C3.99 13.16 3.91 12.01 4.07 10.89C4.35 8.99 5.29 7.27 6.73 6.01C8.17 4.74 10 4.03 11.92 4L12 4C13.13 3.98 14.25 4.19 15.3 4.62C16.34 5.04 17.3 5.68 18.1 6.48C18.72 7.1 19.21 7.84 19.54 8.66C19.86 9.48 20.02 10.36 20 11.25C19.89 12.27 19.41 13.22 18.65 13.91C17.89 14.6 16.9 14.99 15.88 15Z" fill="#000000" fill-opacity="1.000000" fill-rule="nonzero"/>
		<path id="Vector" d="M13.5 6.5C13.5 7.32 12.82 8 12 8C11.17 8 10.5 7.32 10.5 6.5C10.5 5.67 11.17 5 12 5C12.82 5 13.5 5.67 13.5 6.5Z" fill="#000000" fill-opacity="1.000000" fill-rule="evenodd"/>
		<path id="Vector" d="M15.25 7.19C14.99 7.34 14.78 7.56 14.65 7.83C14.52 8.1 14.47 8.4 14.51 8.69C14.55 8.98 14.67 9.26 14.87 9.48C15.06 9.71 15.32 9.87 15.61 9.94C15.89 10.02 16.2 10.01 16.48 9.91C16.76 9.82 17 9.64 17.18 9.41C17.37 9.17 17.47 8.89 17.49 8.59C17.51 8.3 17.44 8 17.29 7.74C17.2 7.57 17.07 7.42 16.91 7.3C16.75 7.18 16.57 7.1 16.38 7.05C16.19 6.99 16 6.98 15.8 7.01C15.6 7.03 15.42 7.1 15.25 7.19Z" fill="#000000" fill-opacity="1.000000" fill-rule="nonzero"/>
		<path id="Vector" d="M8.75 7.2C8.49 7.05 8.19 6.98 7.9 7C7.6 7.02 7.32 7.12 7.08 7.31C6.85 7.49 6.67 7.73 6.58 8.01C6.48 8.29 6.47 8.6 6.55 8.88C6.62 9.17 6.78 9.43 7.01 9.62C7.23 9.82 7.51 9.94 7.8 9.98C8.09 10.02 8.39 9.97 8.66 9.84C8.93 9.71 9.15 9.5 9.3 9.25C9.39 9.07 9.46 8.89 9.48 8.69C9.51 8.49 9.5 8.3 9.44 8.11C9.39 7.92 9.31 7.74 9.19 7.58C9.07 7.42 8.92 7.29 8.75 7.2Z" fill="#000000" fill-opacity="1.000000" fill-rule="nonzero"/>
		<path id="Vector" d="M6.16 11.26C5.91 11.42 5.72 11.66 5.61 11.93C5.49 12.21 5.47 12.51 5.52 12.8C5.58 13.09 5.73 13.36 5.94 13.57C6.15 13.77 6.42 13.92 6.71 13.97C7 14.03 7.3 14 7.58 13.88C7.85 13.76 8.08 13.57 8.25 13.32C8.41 13.07 8.5 12.78 8.49 12.49C8.49 12.19 8.4 11.9 8.24 11.66C8.13 11.49 7.98 11.35 7.82 11.24C7.66 11.13 7.47 11.06 7.28 11.02C7.09 10.98 6.89 10.99 6.69 11.03C6.5 11.07 6.32 11.14 6.16 11.26Z" fill="#000000" fill-opacity="1.000000" fill-rule="nonzero"/>
	</g>
</svg>
