<svg width="24.000000" height="24.000000" viewBox="0 0 24 24" fill="none" xmlns="http://www.w3.org/2000/svg" xmlns:xlink="http://www.w3.org/1999/xlink">
	<desc>
			Created with Pixso.
	</desc>
	<defs>
		<clipPath id="clip5661_1926">
			<rect id="copy" width="24.000000" height="24.000000" fill="white" fill-opacity="0"/>
		</clipPath>
	</defs>
	<rect id="copy" width="24.000000" height="24.000000" fill="#FFFFFF" fill-opacity="0"/>
	<g clip-path="url(#clip5661_1926)">
		<g opacity="0.000000">
			<path id="Vector" d="M0 0L24 0L24 24L0 24L0 0Z" fill="#000000" fill-opacity="1.000000" fill-rule="evenodd"/>
		</g>
		<path id="Vector" d="M18 9L15 9L15 5.67C14.99 4.96 14.71 4.28 14.21 3.78C13.71 3.28 13.03 3 12.33 3L5.67 3C4.96 3 4.28 3.28 3.78 3.78C3.28 4.28 3 4.96 3 5.67L3 12.33C3 13.03 3.28 13.71 3.78 14.21C4.28 14.71 4.96 14.99 5.67 15L9 15L9 18C9 18.79 9.31 19.55 9.87 20.12C10.44 20.68 11.2 21 12 21L18 21C18.79 21 19.55 20.68 20.12 20.12C20.68 19.55 21 18.79 21 18L21 12C21 11.2 20.68 10.44 20.12 9.87C19.55 9.31 18.79 9 18 9ZM9 12L9 13L5.67 13C5.49 13 5.32 12.92 5.19 12.8C5.07 12.67 5 12.5 5 12.33L5 5.67C5 5.49 5.07 5.32 5.19 5.19C5.32 5.07 5.49 5 5.67 5L12.33 5C12.5 5 12.67 5.07 12.8 5.19C12.92 5.32 13 5.49 13 5.67L13 9L12 9C11.2 9 10.44 9.31 9.87 9.87C9.31 10.44 9 11.2 9 12Z" fill="#000000" fill-opacity="1.000000" fill-rule="nonzero"/>
	</g>
</svg>
