<svg width="24.000000" height="24.000000" viewBox="0 0 24 24" fill="none" xmlns="http://www.w3.org/2000/svg" xmlns:xlink="http://www.w3.org/1999/xlink">
	<desc>
			Created with Pixso.
	</desc>
	<defs>
		<clipPath id="clip5661_2084">
			<rect id="credit-card" width="24.000000" height="24.000000" fill="white" fill-opacity="0"/>
		</clipPath>
	</defs>
	<rect id="credit-card" width="24.000000" height="24.000000" fill="#FFFFFF" fill-opacity="0"/>
	<g clip-path="url(#clip5661_2084)">
		<g opacity="0.000000">
			<path id="Vector" d="M0 0L24 0L24 24L0 24L0 0Z" fill="#000000" fill-opacity="1.000000" fill-rule="evenodd"/>
		</g>
		<path id="Vector" d="M19 5L5 5C4.2 5 3.44 5.31 2.87 5.87C2.31 6.44 2 7.2 2 8L2 16C2 16.79 2.31 17.55 2.87 18.12C3.44 18.68 4.2 19 5 19L19 19C19.79 19 20.55 18.68 21.12 18.12C21.68 17.55 22 16.79 22 16L22 8C22 7.2 21.68 6.44 21.12 5.87C20.55 5.31 19.79 5 19 5ZM11 15L7 15C6.73 15 6.48 14.89 6.29 14.7C6.1 14.51 6 14.26 6 14C6 13.73 6.1 13.48 6.29 13.29C6.48 13.1 6.73 13 7 13L11 13C11.26 13 11.51 13.1 11.7 13.29C11.89 13.48 12 13.73 12 14C12 14.26 11.89 14.51 11.7 14.7C11.51 14.89 11.26 15 11 15ZM17 15L15 15C14.73 15 14.48 14.89 14.29 14.7C14.1 14.51 14 14.26 14 14C14 13.73 14.1 13.48 14.29 13.29C14.48 13.1 14.73 13 15 13L17 13C17.26 13 17.51 13.1 17.7 13.29C17.89 13.48 18 13.73 18 14C18 14.26 17.89 14.51 17.7 14.7C17.51 14.89 17.26 15 17 15ZM20 9L4 9L4 8C4 7.73 4.1 7.48 4.29 7.29C4.48 7.1 4.73 7 5 7L19 7C19.26 7 19.51 7.1 19.7 7.29C19.89 7.48 20 7.73 20 8L20 9Z" fill="#000000" fill-opacity="1.000000" fill-rule="nonzero"/>
	</g>
</svg>
