<svg width="24.000000" height="24.000000" viewBox="0 0 24 24" fill="none" xmlns="http://www.w3.org/2000/svg" xmlns:xlink="http://www.w3.org/1999/xlink">
	<desc>
			Created with Pixso.
	</desc>
	<defs>
		<clipPath id="clip5661_2077">
			<rect id="credit-card-outline" width="24.000000" height="24.000000" fill="white" fill-opacity="0"/>
		</clipPath>
	</defs>
	<rect id="credit-card-outline" width="24.000000" height="24.000000" fill="#FFFFFF" fill-opacity="0"/>
	<g clip-path="url(#clip5661_2077)">
		<g opacity="0.000000">
			<path id="Vector" d="M0 0L24 0L24 24L0 24L0 0Z" fill="#000000" fill-opacity="1.000000" fill-rule="evenodd"/>
		</g>
		<path id="Vector" d="M19 5L5 5C4.2 5 3.44 5.31 2.87 5.87C2.31 6.44 2 7.2 2 8L2 16C2 16.79 2.31 17.55 2.87 18.12C3.44 18.68 4.2 19 5 19L19 19C19.79 19 20.55 18.68 21.12 18.12C21.68 17.55 22 16.79 22 16L22 8C22 7.2 21.68 6.44 21.12 5.87C20.55 5.31 19.79 5 19 5ZM4 8C4 7.73 4.1 7.48 4.29 7.29C4.48 7.1 4.73 7 5 7L19 7C19.26 7 19.51 7.1 19.7 7.29C19.89 7.48 20 7.73 20 8L20 9L4 9L4 8ZM20 16C20 16.26 19.89 16.51 19.7 16.7C19.51 16.89 19.26 17 19 17L5 17C4.73 17 4.48 16.89 4.29 16.7C4.1 16.51 4 16.26 4 16L4 11L20 11L20 16Z" fill="#000000" fill-opacity="1.000000" fill-rule="nonzero"/>
		<path id="Vector" d="M7 15L11 15C11.26 15 11.51 14.89 11.7 14.7C11.89 14.51 12 14.26 12 14C12 13.73 11.89 13.48 11.7 13.29C11.51 13.1 11.26 13 11 13L7 13C6.73 13 6.48 13.1 6.29 13.29C6.1 13.48 6 13.73 6 14C6 14.26 6.1 14.51 6.29 14.7C6.48 14.89 6.73 15 7 15Z" fill="#000000" fill-opacity="1.000000" fill-rule="nonzero"/>
		<path id="Vector" d="M15 15L17 15C17.26 15 17.51 14.89 17.7 14.7C17.89 14.51 18 14.26 18 14C18 13.73 17.89 13.48 17.7 13.29C17.51 13.1 17.26 13 17 13L15 13C14.73 13 14.48 13.1 14.29 13.29C14.1 13.48 14 13.73 14 14C14 14.26 14.1 14.51 14.29 14.7C14.48 14.89 14.73 15 15 15Z" fill="#000000" fill-opacity="1.000000" fill-rule="nonzero"/>
	</g>
</svg>
