<svg width="24.000000" height="24.000000" viewBox="0 0 24 24" fill="none" xmlns="http://www.w3.org/2000/svg" xmlns:xlink="http://www.w3.org/1999/xlink">
	<desc>
			Created with Pixso.
	</desc>
	<defs>
		<clipPath id="clip5661_1800">
			<rect id="email-outline" width="24.000000" height="24.000000" fill="white" fill-opacity="0"/>
		</clipPath>
	</defs>
	<rect id="email-outline" width="24.000000" height="24.000000" fill="#FFFFFF" fill-opacity="0"/>
	<g clip-path="url(#clip5661_1800)">
		<g opacity="0.000000">
			<path id="Vector" d="M0 0L24 0L24 24L0 24L0 0Z" fill="#000000" fill-opacity="1.000000" fill-rule="evenodd"/>
		</g>
		<path id="Vector" d="M19 4L5 4C4.2 4 3.44 4.31 2.87 4.87C2.31 5.44 2 6.2 2 7L2 17C2 17.79 2.31 18.55 2.87 19.12C3.44 19.68 4.2 20 5 20L19 20C19.79 20 20.55 19.68 21.12 19.12C21.68 18.55 22 17.79 22 17L22 7C22 6.2 21.68 5.44 21.12 4.87C20.55 4.31 19.79 4 19 4ZM18.33 6L12 10.75L5.67 6L18.33 6ZM19 18L5 18C4.73 18 4.48 17.89 4.29 17.7C4.1 17.51 4 17.26 4 17L4 7.25L11.4 12.8C11.57 12.92 11.78 13 12 13C12.21 13 12.42 12.92 12.6 12.8L20 7.25L20 17C20 17.26 19.89 17.51 19.7 17.7C19.51 17.89 19.26 18 19 18Z" fill="#000000" fill-opacity="1.000000" fill-rule="nonzero"/>
	</g>
</svg>
