<svg width="24.000000" height="24.000000" viewBox="0 0 24 24" fill="none" xmlns="http://www.w3.org/2000/svg" xmlns:xlink="http://www.w3.org/1999/xlink">
	<desc>
			Created with Pixso.
	</desc>
	<defs>
		<clipPath id="clip5661_1947">
			<rect id="email" width="24.000000" height="24.000000" fill="white" fill-opacity="0"/>
		</clipPath>
	</defs>
	<rect id="email" width="24.000000" height="24.000000" fill="#FFFFFF" fill-opacity="0"/>
	<g clip-path="url(#clip5661_1947)">
		<g opacity="0.000000">
			<path id="Vector" d="M0 0L24 0L24 24L0 24L0 0Z" fill="#000000" fill-opacity="1.000000" fill-rule="evenodd"/>
		</g>
		<path id="Vector" d="M19 4L5 4C4.2 4 3.44 4.31 2.87 4.87C2.31 5.44 2 6.2 2 7L2 17C2 17.79 2.31 18.55 2.87 19.12C3.44 19.68 4.2 20 5 20L19 20C19.79 20 20.55 19.68 21.12 19.12C21.68 18.55 22 17.79 22 17L22 7C22 6.2 21.68 5.44 21.12 4.87C20.55 4.31 19.79 4 19 4ZM19 6L12.5 10.47C12.34 10.55 12.17 10.6 12 10.6C11.82 10.6 11.65 10.55 11.5 10.47L5 6L19 6Z" fill="#000000" fill-opacity="1.000000" fill-rule="nonzero"/>
	</g>
</svg>
