<svg width="24.000000" height="24.000000" viewBox="0 0 24 24" fill="none" xmlns="http://www.w3.org/2000/svg" xmlns:xlink="http://www.w3.org/1999/xlink">
	<desc>
			Created with Pixso.
	</desc>
	<defs>
		<clipPath id="clip5661_1743">
			<rect id="expand-outline" width="24.000000" height="24.000000" fill="white" fill-opacity="0"/>
		</clipPath>
	</defs>
	<rect id="expand-outline" width="24.000000" height="24.000000" fill="#FFFFFF" fill-opacity="0"/>
	<g clip-path="url(#clip5661_1743)">
		<g opacity="0.000000">
			<path id="Vector" d="M24 24L0 24L0 0L24 0L24 24Z" fill="#000000" fill-opacity="1.000000" fill-rule="evenodd"/>
		</g>
		<path id="Vector" d="M20 5C20 4.73 19.89 4.48 19.7 4.29C19.51 4.1 19.26 4 19 4L14 4C13.73 4 13.48 4.1 13.29 4.29C13.1 4.48 13 4.73 13 5C13 5.26 13.1 5.51 13.29 5.7C13.48 5.89 13.73 6 14 6L16.57 6L13.29 9.29C13.19 9.38 13.12 9.49 13.07 9.61C13.02 9.73 12.99 9.86 12.99 10C12.99 10.13 13.02 10.26 13.07 10.38C13.12 10.5 13.19 10.61 13.29 10.71C13.38 10.8 13.49 10.87 13.61 10.92C13.73 10.97 13.86 11 14 11C14.13 11 14.26 10.97 14.38 10.92C14.5 10.87 14.61 10.8 14.71 10.71L18 7.42L18 10C18 10.26 18.1 10.51 18.29 10.7C18.48 10.89 18.73 11 19 11C19.26 11 19.51 10.89 19.7 10.7C19.89 10.51 20 10.26 20 10L20 5Z" fill="#000000" fill-opacity="1.000000" fill-rule="nonzero"/>
		<path id="Vector" d="M10.71 13.29C10.61 13.19 10.5 13.12 10.38 13.07C10.26 13.02 10.13 12.99 10 12.99C9.86 12.99 9.73 13.02 9.61 13.07C9.49 13.12 9.38 13.19 9.29 13.29L6 16.57L6 14C6 13.73 5.89 13.48 5.7 13.29C5.51 13.1 5.26 13 5 13C4.73 13 4.48 13.1 4.29 13.29C4.1 13.48 4 13.73 4 14L4 19C4 19.26 4.1 19.51 4.29 19.7C4.48 19.89 4.73 20 5 20L10 20C10.26 20 10.51 19.89 10.7 19.7C10.89 19.51 11 19.26 11 19C11 18.73 10.89 18.48 10.7 18.29C10.51 18.1 10.26 18 10 18L7.42 18L10.71 14.71C10.8 14.61 10.87 14.5 10.92 14.38C10.97 14.26 11 14.13 11 14C11 13.86 10.97 13.73 10.92 13.61C10.87 13.49 10.8 13.38 10.71 13.29Z" fill="#000000" fill-opacity="1.000000" fill-rule="nonzero"/>
	</g>
</svg>
