<svg width="24.000000" height="24.000000" viewBox="0 0 24 24" fill="none" xmlns="http://www.w3.org/2000/svg" xmlns:xlink="http://www.w3.org/1999/xlink">
	<desc>
			Created with Pixso.
	</desc>
	<defs>
		<clipPath id="clip5661_1736">
			<rect id="eye-off-outline" width="24.000000" height="24.000000" fill="white" fill-opacity="0"/>
		</clipPath>
	</defs>
	<rect id="eye-off-outline" width="24.000000" height="24.000000" fill="#FFFFFF" fill-opacity="0"/>
	<g clip-path="url(#clip5661_1736)">
		<g opacity="0.000000">
			<path id="Vector" d="M0 0L24 0L24 24L0 24L0 0Z" fill="#000000" fill-opacity="1.000000" fill-rule="evenodd"/>
		</g>
		<path id="Vector" d="M4.71 3.29C4.61 3.19 4.5 3.12 4.38 3.07C4.26 3.02 4.13 2.99 4 2.99C3.86 2.99 3.73 3.02 3.61 3.07C3.49 3.12 3.38 3.19 3.29 3.29C3.1 3.47 2.99 3.73 2.99 4C2.99 4.26 3.1 4.52 3.29 4.71L8.92 10.34C8.56 11 8.43 11.76 8.54 12.5C8.64 13.25 8.99 13.94 9.52 14.47C10.05 15 10.74 15.35 11.49 15.45C12.23 15.56 12.99 15.43 13.66 15.08L19.29 20.71C19.38 20.8 19.49 20.87 19.61 20.92C19.73 20.97 19.86 21 20 21C20.13 21 20.26 20.97 20.38 20.92C20.5 20.87 20.61 20.8 20.71 20.71C20.8 20.61 20.87 20.5 20.92 20.38C20.97 20.26 21 20.13 21 20C21 19.86 20.97 19.73 20.92 19.61C20.87 19.49 20.8 19.38 20.71 19.29L4.71 3.29ZM12 13.5C11.6 13.5 11.22 13.34 10.93 13.06C10.65 12.77 10.5 12.39 10.5 12L10.5 11.93L12.06 13.49L12 13.5Z" fill="#000000" fill-opacity="1.000000" fill-rule="nonzero"/>
		<path id="Vector" d="M12.22 17C7.92 17.1 5.1 13.41 4.22 12C4.84 11 5.59 10.08 6.46 9.28L5 7.87C3.87 8.93 2.9 10.15 2.13 11.5C2.04 11.65 1.99 11.82 1.99 12C1.99 12.17 2.04 12.34 2.13 12.5C2.76 13.59 6.13 19 12.02 19L12.27 19C13.37 18.96 14.47 18.74 15.5 18.33L13.92 16.75C13.36 16.89 12.79 16.98 12.22 17Z" fill="#000000" fill-opacity="1.000000" fill-rule="nonzero"/>
		<path id="Vector" d="M21.87 11.5C21.23 10.39 17.7 4.81 11.73 5C10.62 5.03 9.52 5.25 8.5 5.67L10.08 7.25C10.63 7.1 11.2 7.01 11.78 7C16.07 6.89 18.89 10.59 19.78 12C19.13 13 18.36 13.91 17.49 14.72L19 16.12C20.14 15.06 21.12 13.84 21.91 12.5C21.99 12.34 22.03 12.17 22.02 11.99C22.01 11.81 21.96 11.64 21.87 11.5Z" fill="#000000" fill-opacity="1.000000" fill-rule="nonzero"/>
	</g>
</svg>
