<svg width="24.000000" height="24.000000" viewBox="0 0 24 24" fill="none" xmlns="http://www.w3.org/2000/svg" xmlns:xlink="http://www.w3.org/1999/xlink">
	<desc>
			Created with Pixso.
	</desc>
	<defs>
		<clipPath id="clip5661_1730">
			<rect id="eye-outline" width="24.000000" height="24.000000" fill="white" fill-opacity="0"/>
		</clipPath>
	</defs>
	<rect id="eye-outline" width="24.000000" height="24.000000" fill="#FFFFFF" fill-opacity="0"/>
	<g clip-path="url(#clip5661_1730)">
		<g opacity="0.000000">
			<path id="Vector" d="M0 0L24 0L24 24L0 24L0 0Z" fill="#000000" fill-opacity="1.000000" fill-rule="evenodd"/>
		</g>
		<path id="Vector" d="M21.87 11.5C21.23 10.39 17.7 4.81 11.73 5C6.2 5.14 3 10 2.13 11.5C2.04 11.65 1.99 11.82 1.99 12C1.99 12.17 2.04 12.34 2.13 12.5C2.76 13.59 6.13 19 12.02 19L12.27 19C17.79 18.86 21.01 14 21.87 12.5C21.95 12.34 22 12.17 22 12C22 11.82 21.95 11.65 21.87 11.5ZM12.22 17C7.91 17.1 5.1 13.41 4.22 12C5.22 10.39 7.83 7.09 11.83 7C16.12 6.89 18.94 10.59 19.83 12C18.79 13.61 16.21 16.9 12.22 17Z" fill="#000000" fill-opacity="1.000000" fill-rule="nonzero"/>
		<path id="Vector" d="M12 8.5C11.3 8.5 10.63 8.7 10.05 9.08C9.47 9.47 9.03 10.02 8.76 10.66C8.5 11.3 8.43 12 8.56 12.68C8.7 13.36 9.03 13.98 9.52 14.47C10.01 14.96 10.63 15.29 11.31 15.43C11.99 15.56 12.69 15.49 13.33 15.23C13.97 14.96 14.52 14.52 14.91 13.94C15.29 13.36 15.5 12.69 15.5 12C15.5 11.07 15.13 10.18 14.47 9.52C13.81 8.86 12.92 8.5 12 8.5ZM12 13.5C11.7 13.5 11.41 13.41 11.16 13.24C10.92 13.08 10.72 12.84 10.61 12.57C10.5 12.29 10.47 11.99 10.52 11.7C10.58 11.41 10.72 11.14 10.93 10.93C11.14 10.72 11.41 10.58 11.7 10.52C11.99 10.47 12.29 10.5 12.57 10.61C12.84 10.72 13.08 10.92 13.24 11.16C13.41 11.41 13.5 11.7 13.5 12C13.5 12.39 13.34 12.77 13.06 13.06C12.77 13.34 12.39 13.5 12 13.5Z" fill="#000000" fill-opacity="1.000000" fill-rule="nonzero"/>
	</g>
</svg>
