<svg width="24.000000" height="24.000000" viewBox="0 0 24 24" fill="none" xmlns="http://www.w3.org/2000/svg" xmlns:xlink="http://www.w3.org/1999/xlink">
	<desc>
			Created with Pixso.
	</desc>
	<defs>
		<clipPath id="clip5661_1886">
			<rect id="eye-off" width="24.000000" height="24.000000" fill="white" fill-opacity="0"/>
		</clipPath>
	</defs>
	<rect id="eye-off" width="24.000000" height="24.000000" fill="#FFFFFF" fill-opacity="0"/>
	<g clip-path="url(#clip5661_1886)">
		<g opacity="0.000000">
			<path id="Vector" d="M0 0L24 0L24 24L0 24L0 0Z" fill="#000000" fill-opacity="1.000000" fill-rule="evenodd"/>
		</g>
		<path id="Vector" d="M13.5 12C13.5 12.82 12.82 13.5 12 13.5C11.17 13.5 10.5 12.82 10.5 12C10.5 11.17 11.17 10.5 12 10.5C12.82 10.5 13.5 11.17 13.5 12Z" fill="#000000" fill-opacity="1.000000" fill-rule="evenodd"/>
		<path id="Vector" d="M15.29 18.12L14 16.78L13.93 16.7L12.66 15.44C12.45 15.47 12.25 15.49 12.05 15.5C11.58 15.5 11.12 15.42 10.69 15.24C10.26 15.07 9.87 14.81 9.54 14.49C9.21 14.16 8.95 13.77 8.77 13.35C8.59 12.92 8.49 12.46 8.5 12C8.5 11.79 8.52 11.59 8.56 11.39L6.56 9.39L5 7.87C3.87 8.93 2.9 10.15 2.13 11.5C2.04 11.65 1.99 11.82 1.99 12C1.99 12.17 2.04 12.34 2.13 12.5C2.76 13.59 6.13 19 12.02 19L12.27 19C13.37 18.96 14.47 18.74 15.5 18.33L15.29 18.12Z" fill="#000000" fill-opacity="1.000000" fill-rule="nonzero"/>
		<path id="Vector" d="M8.59 5.75L11.39 8.56C11.59 8.52 11.79 8.5 12 8.5C12.92 8.5 13.81 8.86 14.47 9.52C15.13 10.18 15.5 11.07 15.5 12C15.49 12.2 15.47 12.4 15.44 12.61L18.12 15.29L18.95 16.12C20.1 15.06 21.08 13.84 21.87 12.5C21.95 12.34 22 12.17 22 12C22 11.82 21.95 11.65 21.87 11.5C21.23 10.39 17.7 4.81 11.73 5C10.62 5.03 9.52 5.25 8.5 5.67L8.59 5.75Z" fill="#000000" fill-opacity="1.000000" fill-rule="nonzero"/>
		<path id="Vector" d="M20.71 19.29L19.41 18L17.41 16L7.89 6.47L6.42 5L4.71 3.29C4.61 3.19 4.5 3.12 4.38 3.07C4.26 3.02 4.13 2.99 4 2.99C3.86 2.99 3.73 3.02 3.61 3.07C3.49 3.12 3.38 3.19 3.29 3.29C3.1 3.47 2.99 3.73 2.99 4C2.99 4.26 3.1 4.52 3.29 4.71L5.53 7L7.28 8.7L14.59 16L14.66 16.07L16 17.41L16.59 18L19.29 20.71C19.38 20.8 19.49 20.87 19.61 20.92C19.73 20.97 19.86 21 20 21C20.13 21 20.26 20.97 20.38 20.92C20.5 20.87 20.61 20.8 20.71 20.71C20.8 20.61 20.87 20.5 20.92 20.38C20.97 20.26 21 20.13 21 20C21 19.86 20.97 19.73 20.92 19.61C20.87 19.49 20.8 19.38 20.71 19.29Z" fill="#000000" fill-opacity="1.000000" fill-rule="nonzero"/>
	</g>
</svg>
