<svg width="24.000000" height="24.000000" viewBox="0 0 24 24" fill="none" xmlns="http://www.w3.org/2000/svg" xmlns:xlink="http://www.w3.org/1999/xlink">
	<desc>
			Created with Pixso.
	</desc>
	<defs>
		<clipPath id="clip5661_1894">
			<rect id="eye" width="24.000000" height="24.000000" fill="white" fill-opacity="0"/>
		</clipPath>
	</defs>
	<rect id="eye" width="24.000000" height="24.000000" fill="#FFFFFF" fill-opacity="0"/>
	<g clip-path="url(#clip5661_1894)">
		<g opacity="0.000000">
			<path id="Vector" d="M0 0L24 0L24 24L0 24L0 0Z" fill="#000000" fill-opacity="1.000000" fill-rule="evenodd"/>
		</g>
		<path id="Vector" d="M13.5 12C13.5 12.82 12.82 13.5 12 13.5C11.17 13.5 10.5 12.82 10.5 12C10.5 11.17 11.17 10.5 12 10.5C12.82 10.5 13.5 11.17 13.5 12Z" fill="#000000" fill-opacity="1.000000" fill-rule="evenodd"/>
		<path id="Vector" d="M21.87 11.5C21.23 10.39 17.7 4.81 11.73 5C6.2 5.14 3 10 2.13 11.5C2.04 11.65 1.99 11.82 1.99 12C1.99 12.17 2.04 12.34 2.13 12.5C2.76 13.59 6.13 19 12.02 19L12.27 19C17.79 18.86 21.01 14 21.87 12.5C21.95 12.34 22 12.17 22 12C22 11.82 21.95 11.65 21.87 11.5ZM12 15.5C11.3 15.5 10.63 15.29 10.05 14.91C9.47 14.52 9.03 13.97 8.76 13.33C8.5 12.69 8.43 11.99 8.56 11.31C8.7 10.63 9.03 10.01 9.52 9.52C10.01 9.03 10.63 8.7 11.31 8.56C11.99 8.43 12.69 8.5 13.33 8.76C13.97 9.03 14.52 9.47 14.91 10.05C15.29 10.63 15.5 11.3 15.5 12C15.5 12.92 15.13 13.81 14.47 14.47C13.81 15.13 12.92 15.5 12 15.5Z" fill="#000000" fill-opacity="1.000000" fill-rule="nonzero"/>
	</g>
</svg>
