<svg width="24.000000" height="24.000000" viewBox="0 0 24 24" fill="none" xmlns="http://www.w3.org/2000/svg" xmlns:xlink="http://www.w3.org/1999/xlink">
	<desc>
			Created with Pixso.
	</desc>
	<defs>
		<clipPath id="clip5661_1970">
			<rect id="facebook-svgrepo-com (1) 1" width="24.000000" height="24.000000" fill="white" fill-opacity="0"/>
		</clipPath>
	</defs>
	<rect id="facebook-svgrepo-com (1) 1" width="24.000000" height="24.000000" fill="#FFFFFF" fill-opacity="0"/>
	<g clip-path="url(#clip5661_1970)">
		<rect id="Rectangle 478" x="8.000000" y="4.000000" width="13.000000" height="20.000000" fill="#FFFFFF" fill-opacity="1.000000"/>
		<path id="Vector" d="M20.76 0L3.23 0C1.44 0 0 1.44 0 3.23L0 20.76C0 22.55 1.44 23.99 3.23 23.99L11.88 23.99L11.89 15.42L9.66 15.42C9.37 15.42 9.14 15.18 9.14 14.89L9.13 12.13C9.12 11.84 9.36 11.6 9.65 11.6L11.88 11.6L11.88 8.93C11.88 5.83 13.77 4.14 16.53 4.14L18.8 4.14C19.09 4.14 19.33 4.38 19.33 4.67L19.33 7C19.33 7.29 19.09 7.53 18.8 7.53L17.41 7.53C15.91 7.53 15.62 8.24 15.62 9.29L15.62 11.6L18.92 11.6C19.24 11.6 19.48 11.88 19.44 12.19L19.12 14.95C19.08 15.22 18.86 15.42 18.59 15.42L15.63 15.42L15.62 24L20.76 24C22.55 24 23.99 22.55 23.99 20.76L23.99 3.23C23.99 1.44 22.55 0 20.76 0Z" fill="#475993" fill-opacity="1.000000" fill-rule="nonzero"/>
	</g>
</svg>
