<svg width="24.000000" height="24.000000" viewBox="0 0 24 24" fill="none" xmlns="http://www.w3.org/2000/svg" xmlns:xlink="http://www.w3.org/1999/xlink">
	<desc>
			Created with Pixso.
	</desc>
	<defs>
		<clipPath id="clip52529_5231">
			<rect id="funnel-outline 1" width="24.000000" height="24.000000" fill="white" fill-opacity="0"/>
		</clipPath>
	</defs>
	<rect id="funnel-outline 1" width="24.000000" height="24.000000" fill="#FFFFFF" fill-opacity="0"/>
	<g clip-path="url(#clip52529_5231)">
		<g opacity="0.000000">
			<path id="Vector" d="M0 0L24 0L24 24L0 24L0 0Z" fill="#000000" fill-opacity="1.000000" fill-rule="evenodd"/>
		</g>
		<path id="Vector" d="M13.9 22C13.68 22 13.47 21.92 13.3 21.8L9.3 18.75C9.17 18.65 9.07 18.53 9.01 18.39C8.94 18.25 8.9 18.1 8.91 17.95L8.91 14.68L4.11 5.46C4.03 5.3 3.99 5.13 3.99 4.96C4 4.79 4.05 4.62 4.14 4.47C4.23 4.33 4.35 4.21 4.5 4.12C4.65 4.04 4.82 3.99 5 4L19 4C19.17 4 19.34 4.04 19.49 4.13C19.64 4.21 19.77 4.34 19.86 4.49C19.94 4.64 19.99 4.81 19.99 4.99C19.99 5.16 19.94 5.33 19.86 5.49L14.86 14.7L14.86 21C14.86 21.18 14.81 21.36 14.71 21.52C14.61 21.68 14.47 21.81 14.31 21.9C14.18 21.96 14.04 21.99 13.9 22ZM10.9 17.45L12.9 18.99L12.9 14.44C12.89 14.28 12.93 14.13 13 14L17.29 6L6.64 6L10.77 14C10.84 14.14 10.88 14.3 10.88 14.46L10.9 17.45Z" fill="#000000" fill-opacity="1.000000" fill-rule="nonzero"/>
	</g>
</svg>
