<svg width="24.000000" height="24.000000" viewBox="0 0 24 24" fill="none" xmlns="http://www.w3.org/2000/svg" xmlns:xlink="http://www.w3.org/1999/xlink">
	<desc>
			Created with Pixso.
	</desc>
	<defs>
		<clipPath id="clip5661_1968">
			<rect id="github-svgrepo-com (3) 1" width="24.000000" height="24.000000" fill="white" fill-opacity="0"/>
		</clipPath>
	</defs>
	<rect id="github-svgrepo-com (3) 1" width="24.000000" height="24.000000" fill="#FFFFFF" fill-opacity="0"/>
	<g clip-path="url(#clip5661_1968)">
		<path id="Vector" d="M11.8 0.47L11.89 0.47C14.05 0.47 16.06 1.06 17.78 2.09L17.73 2.06C19.53 3.11 20.98 4.56 22 6.3L22.03 6.36C23.03 8.06 23.62 10.1 23.62 12.28C23.62 17.47 20.28 21.88 15.63 23.47L15.54 23.49C15.48 23.51 15.41 23.52 15.34 23.52C15.19 23.52 15.04 23.47 14.93 23.39L14.93 23.39C14.81 23.28 14.73 23.12 14.73 22.94C14.73 22.94 14.73 22.93 14.73 22.93L14.73 22.93C14.73 22.9 14.73 22.5 14.74 21.75C14.74 21 14.74 20.31 14.74 19.68C14.75 19.61 14.76 19.53 14.76 19.44C14.76 18.68 14.44 18 13.94 17.5C14.54 17.44 15.07 17.34 15.59 17.21L15.52 17.22C16.07 17.07 16.55 16.87 17 16.61L16.97 16.62C17.45 16.35 17.87 16.01 18.21 15.61L18.21 15.6C18.57 15.14 18.85 14.61 19.02 14.02L19.03 13.99C19.23 13.33 19.34 12.58 19.34 11.8C19.34 11.76 19.34 11.71 19.34 11.67L19.34 11.67C19.34 11.65 19.34 11.63 19.34 11.61C19.34 10.41 18.88 9.32 18.13 8.5L18.13 8.51C18.29 8.08 18.38 7.6 18.38 7.09C18.38 6.46 18.24 5.87 18 5.35L18.01 5.37C17.9 5.35 17.77 5.34 17.64 5.34C17.32 5.34 17.02 5.41 16.75 5.54L16.76 5.54C16.21 5.74 15.75 5.97 15.31 6.24L15.34 6.22L14.76 6.58C13.87 6.33 12.86 6.19 11.81 6.19C10.76 6.19 9.74 6.33 8.78 6.6L8.85 6.58C8.69 6.47 8.47 6.33 8.2 6.17C7.84 5.96 7.42 5.76 6.98 5.6L6.92 5.58C6.64 5.43 6.3 5.34 5.95 5.34C5.83 5.34 5.71 5.35 5.6 5.37L5.61 5.37C5.37 5.87 5.23 6.46 5.23 7.09C5.23 7.6 5.33 8.08 5.5 8.53L5.49 8.51C4.73 9.32 4.27 10.41 4.27 11.6C4.27 11.63 4.27 11.65 4.27 11.68L4.27 11.67C4.27 11.71 4.27 11.75 4.27 11.8C4.27 12.57 4.39 13.33 4.6 14.03L4.59 13.98C4.77 14.59 5.05 15.13 5.4 15.6L5.4 15.59C5.74 16.01 6.15 16.35 6.61 16.61L6.63 16.62C7.05 16.86 7.53 17.07 8.04 17.21L8.08 17.22C8.53 17.34 9.06 17.44 9.61 17.49L9.65 17.5C9.24 17.91 8.97 18.46 8.9 19.07L8.9 19.08C8.7 19.18 8.47 19.26 8.23 19.31L8.21 19.31C7.96 19.36 7.68 19.39 7.39 19.39C7.37 19.39 7.35 19.39 7.33 19.39L7.33 19.39C6.96 19.38 6.61 19.26 6.32 19.05L6.33 19.06C5.97 18.81 5.68 18.49 5.48 18.11L5.47 18.1C5.28 17.77 5.03 17.51 4.74 17.3L4.73 17.3C4.51 17.13 4.26 17.01 3.98 16.93L3.97 16.93L3.66 16.88C3.64 16.88 3.61 16.88 3.59 16.88C3.45 16.88 3.32 16.91 3.21 16.95L3.21 16.95C3.13 17 3.11 17.06 3.14 17.13C3.18 17.21 3.22 17.28 3.28 17.34L3.28 17.34C3.33 17.41 3.4 17.47 3.47 17.52L3.48 17.53L3.58 17.6C3.86 17.75 4.08 17.94 4.25 18.18L4.25 18.19C4.44 18.42 4.6 18.67 4.73 18.95L4.74 18.97L4.89 19.32C5.02 19.71 5.25 20.03 5.56 20.27L5.57 20.27C5.85 20.49 6.2 20.66 6.58 20.73L6.6 20.73C6.91 20.79 7.28 20.83 7.66 20.84L7.67 20.84C7.71 20.84 7.76 20.84 7.81 20.84C8.06 20.84 8.31 20.82 8.55 20.78L8.52 20.78L8.87 20.72C8.87 21.11 8.88 21.57 8.88 22.08C8.89 22.6 8.89 22.88 8.89 22.92L8.89 22.94C8.89 23.11 8.81 23.27 8.69 23.38C8.57 23.47 8.43 23.52 8.27 23.52C8.2 23.52 8.13 23.51 8.07 23.49L8.07 23.49C3.34 21.87 0 17.46 0 12.27C0 10.09 0.59 8.05 1.61 6.3L1.58 6.35C2.63 4.56 4.09 3.1 5.83 2.08L5.88 2.05C7.55 1.06 9.57 0.47 11.71 0.47L11.81 0.47L11.8 0.47L11.8 0.47ZM4.47 17.43C4.5 17.36 4.46 17.3 4.36 17.25C4.26 17.22 4.19 17.23 4.16 17.28C4.13 17.35 4.17 17.41 4.27 17.47C4.36 17.53 4.43 17.52 4.47 17.43ZM4.95 17.96C5.02 17.91 5.01 17.82 4.92 17.71C4.81 17.62 4.73 17.6 4.67 17.67C4.6 17.72 4.61 17.8 4.7 17.91C4.8 18.01 4.88 18.03 4.95 17.96L4.95 17.96ZM5.41 18.65C5.5 18.58 5.5 18.48 5.41 18.36C5.33 18.22 5.24 18.19 5.15 18.26C5.05 18.32 5.05 18.41 5.15 18.54C5.24 18.67 5.33 18.71 5.41 18.65ZM6.05 19.29C6.13 19.21 6.11 19.12 5.99 19C5.87 18.88 5.77 18.86 5.68 18.96C5.59 19.04 5.61 19.14 5.75 19.25C5.87 19.37 5.97 19.39 6.05 19.29L6.05 19.29ZM6.93 19.68C6.96 19.57 6.89 19.48 6.73 19.43C6.58 19.39 6.48 19.43 6.44 19.54C6.4 19.65 6.46 19.73 6.64 19.77C6.79 19.83 6.89 19.8 6.93 19.68ZM7.9 19.76C7.9 19.62 7.81 19.57 7.64 19.59C7.47 19.59 7.39 19.64 7.39 19.76C7.39 19.89 7.48 19.95 7.65 19.92C7.82 19.93 7.9 19.87 7.9 19.76ZM8.79 19.6C8.77 19.49 8.68 19.44 8.51 19.46C8.35 19.49 8.28 19.57 8.3 19.69C8.32 19.82 8.41 19.86 8.57 19.82C8.74 19.78 8.81 19.7 8.79 19.6Z" fill="#000000" fill-opacity="1.000000" fill-rule="nonzero"/>
	</g>
</svg>
