<svg width="24.000000" height="24.000000" viewBox="0 0 24 24" fill="none" xmlns="http://www.w3.org/2000/svg" xmlns:xlink="http://www.w3.org/1999/xlink">
	<desc>
			Created with Pixso.
	</desc>
	<defs>
		<clipPath id="clip5661_1963">
			<rect id="google-svgrepo-com 1" width="24.000000" height="24.000000" fill="white" fill-opacity="0"/>
		</clipPath>
	</defs>
	<rect id="google-svgrepo-com 1" width="24.000000" height="24.000000" fill="#FFFFFF" fill-opacity="0"/>
	<g clip-path="url(#clip5661_1963)">
		<path id="Vector" d="M5.26 9.76C6.19 6.93 8.85 4.9 12 4.9C13.69 4.9 15.21 5.5 16.41 6.49L19.9 3C17.78 1.14 15.05 0 12 0C7.27 0 3.19 2.69 1.23 6.65L5.26 9.76Z" fill="#EA4335" fill-opacity="1.000000" fill-rule="nonzero"/>
		<path id="Vector" d="M16.04 18.01C14.95 18.71 13.56 19.09 12 19.09C8.86 19.09 6.21 17.07 5.27 14.26L1.23 17.33C3.19 21.29 7.26 24 12 24C14.93 24 17.73 22.95 19.83 20.99L16.04 18.01Z" fill="#34A853" fill-opacity="1.000000" fill-rule="nonzero"/>
		<path id="Vector" d="M19.83 20.99C22.02 18.95 23.45 15.9 23.45 12C23.45 11.29 23.34 10.52 23.18 9.81L12 9.81L12 14.45L18.43 14.45C18.11 16.01 17.26 17.22 16.04 18.01L19.83 20.99Z" fill="#4A90E2" fill-opacity="1.000000" fill-rule="nonzero"/>
		<path id="Vector" d="M5.27 14.26C5.03 13.55 4.9 12.79 4.9 12C4.9 11.21 5.03 10.46 5.26 9.76L1.23 6.65C0.43 8.26 0 10.07 0 12C0 13.91 0.44 15.73 1.23 17.33L5.27 14.26Z" fill="#FBBC05" fill-opacity="1.000000" fill-rule="nonzero"/>
	</g>
</svg>
