<svg width="24.000000" height="24.000000" viewBox="0 0 24 24" fill="none" xmlns="http://www.w3.org/2000/svg" xmlns:xlink="http://www.w3.org/1999/xlink">
	<desc>
			Created with Pixso.
	</desc>
	<defs>
		<clipPath id="clip5661_1942">
			<rect id="heart" width="24.000000" height="24.000000" fill="white" fill-opacity="0"/>
		</clipPath>
	</defs>
	<rect id="heart" width="24.000000" height="24.000000" fill="#FFFFFF" fill-opacity="0"/>
	<g clip-path="url(#clip5661_1942)">
		<g opacity="0.000000">
			<path id="Vector" d="M0 0L24 0L24 24L0 24L0 0Z" fill="#000000" fill-opacity="1.000000" fill-rule="evenodd"/>
		</g>
		<path id="Vector" d="M12 21C11.86 21 11.73 20.97 11.61 20.92C11.49 20.87 11.38 20.8 11.29 20.71L3.51 12.93C2.54 11.94 1.99 10.61 1.99 9.22C1.99 7.84 2.54 6.51 3.51 5.53C4.5 4.55 5.83 4 7.22 4C8.6 4 9.93 4.55 10.92 5.53L12 6.61L13.08 5.53C14.06 4.55 15.39 4 16.78 4C18.16 4 19.49 4.55 20.48 5.53C21.45 6.51 22 7.84 22 9.22C22 10.61 21.45 11.94 20.48 12.93L12.71 20.71C12.61 20.8 12.5 20.87 12.38 20.92C12.26 20.97 12.13 21 12 21Z" fill="#000000" fill-opacity="1.000000" fill-rule="nonzero"/>
	</g>
</svg>
