<svg width="24.000000" height="24.000000" viewBox="0 0 24 24" fill="none" xmlns="http://www.w3.org/2000/svg" xmlns:xlink="http://www.w3.org/1999/xlink">
	<desc>
			Created with Pixso.
	</desc>
	<defs>
		<clipPath id="clip5661_1811">
			<rect id="home" width="24.000000" height="24.000000" fill="white" fill-opacity="0"/>
		</clipPath>
	</defs>
	<rect id="home" width="24.000000" height="24.000000" fill="#FFFFFF" fill-opacity="0"/>
	<g clip-path="url(#clip5661_1811)">
		<g opacity="0.000000">
			<path id="Vector" d="M0 0L24 0L24 24L0 24L0 0Z" fill="#000000" fill-opacity="1.000000" fill-rule="evenodd"/>
		</g>
		<path id="Vector" d="M10 14L14 14L14 21L10 21L10 14Z" fill="#000000" fill-opacity="1.000000" fill-rule="evenodd"/>
		<path id="Vector" d="M20.42 10.18L12.71 2.29C12.61 2.2 12.5 2.13 12.38 2.08C12.26 2.03 12.13 2 12 2C11.86 2 11.73 2.03 11.61 2.08C11.49 2.13 11.38 2.2 11.29 2.29L3.57 10.18C3.39 10.37 3.24 10.6 3.14 10.84C3.04 11.09 2.99 11.35 3 11.62L3 20C2.99 20.51 3.19 21 3.54 21.37C3.89 21.74 4.37 21.97 4.89 22L8 22L8 13C8 12.73 8.1 12.48 8.29 12.29C8.48 12.1 8.73 12 9 12L15 12C15.26 12 15.51 12.1 15.7 12.29C15.89 12.48 16 12.73 16 13L16 22L19.11 22C19.62 21.97 20.1 21.74 20.45 21.37C20.8 21 21 20.51 21 20L21 11.62C21 11.08 20.79 10.56 20.42 10.18Z" fill="#000000" fill-opacity="1.000000" fill-rule="nonzero"/>
	</g>
</svg>
