<svg width="24.000000" height="24.000000" viewBox="0 0 24 24" fill="none" xmlns="http://www.w3.org/2000/svg" xmlns:xlink="http://www.w3.org/1999/xlink">
	<desc>
			Created with Pixso.
	</desc>
	<defs>
		<clipPath id="clip5661_1676">
			<rect id="image-outline" width="24.000000" height="24.000000" fill="white" fill-opacity="0"/>
		</clipPath>
	</defs>
	<rect id="image-outline" width="24.000000" height="24.000000" fill="#FFFFFF" fill-opacity="0"/>
	<g clip-path="url(#clip5661_1676)">
		<g opacity="0.000000">
			<path id="Vector" d="M0 0L24 0L24 24L0 24L0 0Z" fill="#000000" fill-opacity="1.000000" fill-rule="evenodd"/>
		</g>
		<path id="Vector" d="M18 3L6 3C5.2 3 4.44 3.31 3.87 3.87C3.31 4.44 3 5.2 3 6L3 18C3 18.79 3.31 19.55 3.87 20.12C4.44 20.68 5.2 21 6 21L18 21C18.79 21 19.55 20.68 20.12 20.12C20.68 19.55 21 18.79 21 18L21 6C21 5.2 20.68 4.44 20.12 3.87C19.55 3.31 18.79 3 18 3ZM6 5L18 5C18.26 5 18.51 5.1 18.7 5.29C18.89 5.48 19 5.73 19 6L19 14.36L15.8 11.63C15.3 11.22 14.68 10.99 14.04 10.99C13.39 10.99 12.77 11.22 12.28 11.63L5 17.7L5 6C5 5.73 5.1 5.48 5.29 5.29C5.48 5.1 5.73 5 6 5ZM18 19L6.56 19L13.56 13.16C13.69 13.06 13.85 13 14.02 13C14.19 13 14.35 13.06 14.49 13.16L19 17L19 18C19 18.26 18.89 18.51 18.7 18.7C18.51 18.89 18.26 19 18 19Z" fill="#000000" fill-opacity="1.000000" fill-rule="nonzero"/>
		<path id="Vector" d="M9.5 8.5C9.5 9.32 8.82 10 8 10C7.17 10 6.5 9.32 6.5 8.5C6.5 7.67 7.17 7 8 7C8.82 7 9.5 7.67 9.5 8.5Z" fill="#000000" fill-opacity="1.000000" fill-rule="evenodd"/>
	</g>
</svg>
