<svg width="24.000000" height="24.000000" viewBox="0 0 24 24" fill="none" xmlns="http://www.w3.org/2000/svg" xmlns:xlink="http://www.w3.org/1999/xlink">
	<desc>
			Created with Pixso.
	</desc>
	<defs>
		<clipPath id="clip5661_2052">
			<rect id="layers" width="24.000000" height="24.000000" fill="white" fill-opacity="0"/>
		</clipPath>
	</defs>
	<rect id="layers" width="24.000000" height="24.000000" fill="#FFFFFF" fill-opacity="0"/>
	<g clip-path="url(#clip5661_2052)">
		<g opacity="0.000000">
			<path id="Vector" d="M24 24L0 24L0 0L24 0L24 24Z" fill="#000000" fill-opacity="1.000000" fill-rule="evenodd"/>
		</g>
		<path id="Vector" d="M3.23 7.29L11.76 11.92C11.83 11.95 11.91 11.98 12 11.98C12.08 11.98 12.16 11.95 12.24 11.92L20.76 7.29C20.83 7.25 20.9 7.19 20.94 7.11C20.98 7.04 21 6.95 21 6.86C20.99 6.78 20.96 6.69 20.91 6.62C20.86 6.56 20.79 6.5 20.71 6.48L12.19 3C12.06 2.94 11.93 2.94 11.81 3L3.28 6.48C3.2 6.5 3.13 6.56 3.08 6.62C3.03 6.69 3 6.78 2.99 6.86C2.99 6.95 3.01 7.04 3.05 7.11C3.09 7.19 3.16 7.25 3.23 7.29Z" fill="#000000" fill-opacity="1.000000" fill-rule="nonzero"/>
		<path id="Vector" d="M20.71 10.66L18.87 9.88L12.24 13.49C12.16 13.52 12.08 13.55 12 13.55C11.91 13.55 11.83 13.52 11.76 13.49L5.12 9.88L3.29 10.66C3.21 10.7 3.14 10.76 3.1 10.83C3.05 10.91 3.03 10.99 3.03 11.08C3.03 11.17 3.05 11.25 3.1 11.33C3.14 11.4 3.21 11.46 3.29 11.51L11.81 16.41C11.88 16.45 11.96 16.47 12.05 16.47C12.13 16.47 12.21 16.45 12.29 16.41L20.81 11.51C20.88 11.46 20.94 11.39 20.97 11.31C21.01 11.23 21.03 11.14 21.02 11.05C21.01 10.96 20.97 10.88 20.92 10.81C20.86 10.74 20.79 10.69 20.71 10.66Z" fill="#000000" fill-opacity="1.000000" fill-rule="nonzero"/>
		<path id="Vector" d="M20.71 15.1L19.15 14.42L12.24 18.18C12.16 18.21 12.08 18.24 12 18.24C11.91 18.24 11.83 18.21 11.76 18.18L4.84 14.42L3.28 15.1C3.21 15.14 3.14 15.2 3.09 15.28C3.05 15.35 3.02 15.44 3.02 15.53C3.02 15.62 3.05 15.71 3.09 15.78C3.14 15.86 3.21 15.92 3.28 15.97L11.81 20.97C11.88 21 11.96 21.03 12.05 21.03C12.13 21.03 12.21 21 12.29 20.97L20.81 15.97C20.88 15.92 20.94 15.85 20.98 15.76C21.02 15.68 21.03 15.59 21.02 15.5C21.01 15.41 20.98 15.32 20.92 15.25C20.87 15.18 20.79 15.13 20.71 15.1Z" fill="#000000" fill-opacity="1.000000" fill-rule="nonzero"/>
	</g>
</svg>
