<svg width="24.000000" height="24.000000" viewBox="0 0 24 24" fill="none" xmlns="http://www.w3.org/2000/svg" xmlns:xlink="http://www.w3.org/1999/xlink">
	<desc>
			Created with Pixso.
	</desc>
	<defs>
		<clipPath id="clip5661_2047">
			<rect id="layers-outline" width="24.000000" height="24.000000" fill="white" fill-opacity="0"/>
		</clipPath>
	</defs>
	<rect id="layers-outline" width="24.000000" height="24.000000" fill="#FFFFFF" fill-opacity="0"/>
	<g clip-path="url(#clip5661_2047)">
		<g opacity="0.000000">
			<path id="Vector" d="M24 24L0 24L0 0L24 0L24 24Z" fill="#000000" fill-opacity="1.000000" fill-rule="evenodd"/>
		</g>
		<path id="Vector" d="M21 11.35C20.98 11.16 20.92 10.98 20.81 10.83C20.7 10.68 20.56 10.56 20.39 10.49L18.24 9.57L20.5 8.27C20.66 8.17 20.79 8.04 20.88 7.88C20.96 7.71 21 7.53 21 7.35C20.98 7.16 20.92 6.98 20.81 6.83C20.7 6.68 20.56 6.56 20.39 6.49L12.39 3.08C12.26 3.02 12.13 3 12 3C11.86 3 11.73 3.02 11.61 3.08L3.61 6.49C3.43 6.56 3.29 6.68 3.18 6.83C3.07 6.98 3.01 7.16 3 7.35C2.99 7.53 3.03 7.71 3.11 7.88C3.2 8.04 3.33 8.17 3.5 8.27L5.76 9.57L3.61 10.49C3.43 10.56 3.29 10.68 3.18 10.83C3.07 10.98 3.01 11.16 3 11.35C2.99 11.53 3.03 11.71 3.11 11.88C3.2 12.04 3.33 12.17 3.5 12.27L5.76 13.57L3.61 14.49C3.43 14.56 3.29 14.68 3.18 14.83C3.07 14.98 3.01 15.16 3 15.35C2.99 15.53 3.03 15.71 3.11 15.88C3.2 16.04 3.33 16.17 3.5 16.27L11.5 20.87C11.65 20.95 11.82 21 12 21C12.17 21 12.34 20.95 12.5 20.87L20.5 16.27C20.66 16.17 20.79 16.04 20.88 15.88C20.96 15.71 21 15.53 21 15.35C20.98 15.16 20.92 14.98 20.81 14.83C20.7 14.68 20.56 14.56 20.39 14.49L18.24 13.57L20.5 12.27C20.66 12.17 20.79 12.04 20.88 11.88C20.96 11.71 21 11.53 21 11.35ZM12 5.09L17.76 7.54L12 10.85L6.24 7.54L12 5.09ZM11.5 12.87C11.65 12.95 11.82 13 12 13C12.17 13 12.34 12.95 12.5 12.87L16.07 10.87L17.76 11.59L12 14.85L6.24 11.54L7.93 10.82L11.5 12.87ZM17.76 15.54L12 18.85L6.24 15.54L7.93 14.82L11.5 16.87C11.65 16.95 11.82 17 12 17C12.17 17 12.34 16.95 12.5 16.87L16.07 14.82L17.76 15.54Z" fill="#000000" fill-opacity="1.000000" fill-rule="nonzero"/>
	</g>
</svg>
