<svg width="24.000000" height="24.000000" viewBox="0 0 24 24" fill="none" xmlns="http://www.w3.org/2000/svg" xmlns:xlink="http://www.w3.org/1999/xlink">
	<desc>
			Created with Pixso.
	</desc>
	<defs>
		<clipPath id="clip5661_1931">
			<rect id="maximize" width="24.000000" height="24.000000" fill="white" fill-opacity="0"/>
		</clipPath>
	</defs>
	<rect id="maximize" width="24.000000" height="24.000000" fill="#FFFFFF" fill-opacity="0"/>
	<g clip-path="url(#clip5661_1931)">
		<g opacity="0.000000">
			<path id="Vector" d="M0 0L24 0L24 24L0 24L0 0Z" fill="#000000" fill-opacity="1.000000" fill-rule="evenodd"/>
		</g>
		<path id="Vector" d="M20.71 19.29L17.31 15.9C18.4 14.5 19 12.77 19 11C19 9.41 18.53 7.87 17.65 6.55C16.77 5.23 15.52 4.21 14.06 3.6C12.59 3 10.99 2.84 9.43 3.15C7.88 3.46 6.46 4.22 5.34 5.34C4.22 6.46 3.46 7.88 3.15 9.43C2.84 10.99 3 12.59 3.6 14.06C4.21 15.52 5.23 16.77 6.55 17.65C7.87 18.53 9.41 19 11 19C12.77 19 14.5 18.4 15.9 17.31L19.29 20.71C19.38 20.8 19.49 20.87 19.61 20.92C19.73 20.97 19.86 21 20 21C20.13 21 20.26 20.97 20.38 20.92C20.5 20.87 20.61 20.8 20.71 20.71C20.8 20.61 20.87 20.5 20.92 20.38C20.97 20.26 21 20.13 21 20C21 19.86 20.97 19.73 20.92 19.61C20.87 19.49 20.8 19.38 20.71 19.29ZM13 12L12 12L12 13C12 13.26 11.89 13.51 11.7 13.7C11.51 13.89 11.26 14 11 14C10.73 14 10.48 13.89 10.29 13.7C10.1 13.51 10 13.26 10 13L10 12L9 12C8.73 12 8.48 11.89 8.29 11.7C8.1 11.51 8 11.26 8 11C8 10.73 8.1 10.48 8.29 10.29C8.48 10.1 8.73 10 9 10L10 10L10 9C10 8.73 10.1 8.48 10.29 8.29C10.48 8.1 10.73 8 11 8C11.26 8 11.51 8.1 11.7 8.29C11.89 8.48 12 8.73 12 9L12 10L13 10C13.26 10 13.51 10.1 13.7 10.29C13.89 10.48 14 10.73 14 11C14 11.26 13.89 11.51 13.7 11.7C13.51 11.89 13.26 12 13 12Z" fill="#000000" fill-opacity="1.000000" fill-rule="nonzero"/>
	</g>
</svg>
