<svg width="24.000000" height="24.000000" viewBox="0 0 24 24" fill="none" xmlns="http://www.w3.org/2000/svg" xmlns:xlink="http://www.w3.org/1999/xlink">
	<desc>
			Created with Pixso.
	</desc>
	<defs>
		<clipPath id="clip5661_1870">
			<rect id="message-circle" width="24.000000" height="24.000000" fill="white" fill-opacity="0"/>
		</clipPath>
	</defs>
	<rect id="message-circle" width="24.000000" height="24.000000" fill="#FFFFFF" fill-opacity="0"/>
	<g clip-path="url(#clip5661_1870)">
		<g opacity="0.000000">
			<path id="Vector" d="M0 0L24 0L24 24L0 24L0 0Z" fill="#000000" fill-opacity="1.000000" fill-rule="evenodd"/>
		</g>
		<path id="Vector" d="M19.07 4.93C17.42 3.27 15.26 2.25 12.94 2.02C10.62 1.79 8.3 2.38 6.37 3.69C4.44 4.99 3.03 6.93 2.37 9.16C1.72 11.39 1.86 13.79 2.78 15.93C2.88 16.12 2.91 16.35 2.88 16.57L1.99 20.8C1.96 20.96 1.97 21.13 2.02 21.28C2.06 21.44 2.15 21.59 2.27 21.71C2.36 21.8 2.47 21.87 2.6 21.92C2.73 21.97 2.86 22 2.99 22L3.2 22L7.48 21.14C7.69 21.11 7.91 21.14 8.12 21.23C10.25 22.15 12.65 22.29 14.88 21.64C17.11 20.98 19.05 19.57 20.35 17.64C21.66 15.71 22.25 13.39 22.02 11.07C21.79 8.75 20.77 6.59 19.12 4.95L19.07 4.93ZM8 13C7.8 13 7.6 12.94 7.44 12.83C7.27 12.72 7.15 12.56 7.07 12.38C7 12.2 6.98 11.99 7.01 11.8C7.05 11.61 7.15 11.43 7.29 11.29C7.43 11.15 7.61 11.05 7.8 11.01C7.99 10.98 8.19 11 8.38 11.07C8.56 11.15 8.72 11.28 8.83 11.44C8.94 11.6 9 11.8 9 12C9 12.26 8.89 12.51 8.7 12.7C8.51 12.89 8.26 13 8 13ZM12 13C11.8 13 11.6 12.94 11.44 12.83C11.28 12.72 11.15 12.56 11.07 12.38C11 12.2 10.98 11.99 11.01 11.8C11.05 11.61 11.15 11.43 11.29 11.29C11.43 11.15 11.61 11.05 11.8 11.01C11.99 10.98 12.2 11 12.38 11.07C12.56 11.15 12.72 11.28 12.83 11.44C12.94 11.6 13 11.8 13 12C13 12.26 12.89 12.51 12.7 12.7C12.51 12.89 12.26 13 12 13ZM16 13C15.8 13 15.6 12.94 15.44 12.83C15.28 12.72 15.15 12.56 15.07 12.38C15 12.2 14.98 11.99 15.01 11.8C15.05 11.61 15.15 11.43 15.29 11.29C15.43 11.15 15.61 11.05 15.8 11.01C15.99 10.98 16.2 11 16.38 11.07C16.56 11.15 16.72 11.28 16.83 11.44C16.94 11.6 17 11.8 17 12C17 12.26 16.89 12.51 16.7 12.7C16.51 12.89 16.26 13 16 13Z" fill="#000000" fill-opacity="1.000000" fill-rule="nonzero"/>
	</g>
</svg>
