<svg width="24.000000" height="24.000000" viewBox="0 0 24 24" fill="none" xmlns="http://www.w3.org/2000/svg" xmlns:xlink="http://www.w3.org/1999/xlink">
	<desc>
			Created with Pixso.
	</desc>
	<defs>
		<clipPath id="clip5661_2089">
			<rect id="mic-outline" width="24.000000" height="24.000000" fill="white" fill-opacity="0"/>
		</clipPath>
	</defs>
	<rect id="mic-outline" width="24.000000" height="24.000000" fill="#FFFFFF" fill-opacity="0"/>
	<g clip-path="url(#clip5661_2089)">
		<g opacity="0.000000">
			<path id="Vector" d="M0 0L24 0L24 24L0 24L0 0Z" fill="#000000" fill-opacity="1.000000" fill-rule="evenodd"/>
		</g>
		<path id="Vector" d="M12 15C13.06 15 14.07 14.57 14.82 13.82C15.57 13.07 16 12.06 16 11L16 6C16 4.93 15.57 3.92 14.82 3.17C14.07 2.42 13.06 2 12 2C10.93 2 9.92 2.42 9.17 3.17C8.42 3.92 8 4.93 8 6L8 11C8 12.06 8.42 13.07 9.17 13.82C9.92 14.57 10.93 15 12 15ZM10 6C10 5.46 10.21 4.96 10.58 4.58C10.96 4.21 11.46 4 12 4C12.53 4 13.03 4.21 13.41 4.58C13.78 4.96 14 5.46 14 6L14 11C14 11.53 13.78 12.03 13.41 12.41C13.03 12.78 12.53 13 12 13C11.46 13 10.96 12.78 10.58 12.41C10.21 12.03 10 11.53 10 11L10 6Z" fill="#000000" fill-opacity="1.000000" fill-rule="nonzero"/>
		<path id="Vector" d="M19 11C19 10.73 18.89 10.48 18.7 10.29C18.51 10.1 18.26 10 18 10C17.73 10 17.48 10.1 17.29 10.29C17.1 10.48 17 10.73 17 11C17 12.32 16.47 13.59 15.53 14.53C14.59 15.47 13.32 16 12 16C10.67 16 9.4 15.47 8.46 14.53C7.52 13.59 7 12.32 7 11C7 10.73 6.89 10.48 6.7 10.29C6.51 10.1 6.26 10 6 10C5.73 10 5.48 10.1 5.29 10.29C5.1 10.48 5 10.73 5 11C5 12.68 5.6 14.3 6.71 15.57C7.81 16.84 9.33 17.67 11 17.92L11 20L8.89 20C8.65 20 8.42 20.09 8.26 20.26C8.09 20.42 8 20.65 8 20.89L8 21.11C8 21.34 8.09 21.57 8.26 21.73C8.42 21.9 8.65 22 8.89 22L15.11 22C15.34 22 15.57 21.9 15.73 21.73C15.9 21.57 16 21.34 16 21.11L16 20.89C16 20.65 15.9 20.42 15.73 20.26C15.57 20.09 15.34 20 15.11 20L13 20L13 17.92C14.66 17.67 16.18 16.84 17.28 15.57C18.39 14.3 18.99 12.68 19 11Z" fill="#000000" fill-opacity="1.000000" fill-rule="nonzero"/>
	</g>
</svg>
