<svg width="24.000000" height="24.000000" viewBox="0 0 24 24" fill="none" xmlns="http://www.w3.org/2000/svg" xmlns:xlink="http://www.w3.org/1999/xlink">
	<desc>
			Created with Pixso.
	</desc>
	<defs>
		<clipPath id="clip5661_1717">
			<rect id="more-horizontal-outline" width="24.000000" height="24.000000" fill="white" fill-opacity="0"/>
		</clipPath>
	</defs>
	<rect id="more-horizontal-outline" width="24.000000" height="24.000000" fill="#FFFFFF" fill-opacity="0"/>
	<g clip-path="url(#clip5661_1717)">
		<g opacity="0.000000">
			<path id="Vector" d="M0 0L24 0L24 24L0 24L0 0Z" fill="#000000" fill-opacity="1.000000" fill-rule="evenodd"/>
		</g>
		<path id="Vector" d="M14 12C14 13.1 13.1 14 12 14C10.89 14 10 13.1 10 12C10 10.89 10.89 10 12 10C13.1 10 14 10.89 14 12Z" fill="#000000" fill-opacity="1.000000" fill-rule="evenodd"/>
		<path id="Vector" d="M21 12C21 13.1 20.1 14 19 14C17.89 14 17 13.1 17 12C17 10.89 17.89 10 19 10C20.1 10 21 10.89 21 12Z" fill="#000000" fill-opacity="1.000000" fill-rule="evenodd"/>
		<path id="Vector" d="M7 12C7 13.1 6.1 14 5 14C3.89 14 3 13.1 3 12C3 10.89 3.89 10 5 10C6.1 10 7 10.89 7 12Z" fill="#000000" fill-opacity="1.000000" fill-rule="evenodd"/>
	</g>
</svg>
