<svg width="24.000000" height="24.000000" viewBox="0 0 24 24" fill="none" xmlns="http://www.w3.org/2000/svg" xmlns:xlink="http://www.w3.org/1999/xlink">
	<desc>
			Created with Pixso.
	</desc>
	<defs>
		<clipPath id="clip5928_6372">
			<rect id="more-vertical-outline" width="12.000000" height="12.000000" transform="translate(6.000000 6.000000)" fill="white" fill-opacity="0"/>
		</clipPath>
	</defs>
	<circle id="Ellipse 106" cx="12.000000" cy="12.000000" r="8.500000" stroke="#000000" stroke-opacity="1.000000" stroke-width="1.000000"/>
	<rect id="more-vertical-outline" width="12.000000" height="12.000000" transform="translate(6.000000 6.000000)" fill="#FFFFFF" fill-opacity="0"/>
	<g clip-path="url(#clip5928_6372)">
		<g opacity="0.000000">
			<path id="Vector" d="M6 18L6 6L18 6L18 18L6 18Z" fill="#000000" fill-opacity="1.000000" fill-rule="evenodd"/>
		</g>
		<path id="Vector" d="M13 12C13 12.55 12.55 13 12 13C11.44 13 11 12.55 11 12C11 11.44 11.44 11 12 11C12.55 11 13 11.44 13 12Z" fill="#000000" fill-opacity="1.000000" fill-rule="evenodd"/>
		<path id="Vector" d="M13 8.5C13 9.05 12.55 9.5 12 9.5C11.44 9.5 11 9.05 11 8.5C11 7.94 11.44 7.5 12 7.5C12.55 7.5 13 7.94 13 8.5Z" fill="#000000" fill-opacity="1.000000" fill-rule="evenodd"/>
		<path id="Vector" d="M13 15.5C13 16.05 12.55 16.5 12 16.5C11.44 16.5 11 16.05 11 15.5C11 14.94 11.44 14.5 12 14.5C12.55 14.5 13 14.94 13 15.5Z" fill="#000000" fill-opacity="1.000000" fill-rule="evenodd"/>
	</g>
</svg>
