<svg width="24.000000" height="24.000000" viewBox="0 0 24 24" fill="none" xmlns="http://www.w3.org/2000/svg" xmlns:xlink="http://www.w3.org/1999/xlink">
	<desc>
			Created with Pixso.
	</desc>
	<defs>
		<clipPath id="clip5661_2070">
			<rect id="done-all-outline" width="16.000000" height="16.000000" transform="translate(4.000000 4.000000)" fill="white" fill-opacity="0"/>
		</clipPath>
	</defs>
	<path id="Star 1" d="M11.36 0.52L9.22 2.27C9.03 2.43 8.78 2.51 8.53 2.5L5.76 2.34C5.28 2.31 4.85 2.62 4.73 3.08L4.04 5.76C3.97 6.01 3.82 6.22 3.61 6.35L1.27 7.84C0.87 8.1 0.71 8.61 0.88 9.05L1.89 11.63C1.98 11.86 1.98 12.13 1.89 12.36L0.88 14.94C0.71 15.38 0.87 15.89 1.27 16.15L3.61 17.64C3.82 17.77 3.97 17.98 4.04 18.23L4.73 20.91C4.85 21.37 5.28 21.68 5.76 21.65L8.53 21.49C8.78 21.48 9.03 21.56 9.22 21.72L11.36 23.47C11.73 23.78 12.26 23.78 12.63 23.47L14.77 21.72C14.96 21.56 15.21 21.48 15.46 21.49L18.23 21.65C18.71 21.68 19.14 21.37 19.26 20.91L19.95 18.23C20.02 17.98 20.17 17.77 20.38 17.64L22.72 16.15C23.12 15.89 23.28 15.38 23.11 14.94L22.1 12.36C22.01 12.13 22.01 11.86 22.1 11.63L23.11 9.05C23.28 8.61 23.12 8.1 22.72 7.84L20.38 6.35C20.17 6.22 20.02 6.01 19.95 5.76L19.26 3.08C19.14 2.62 18.71 2.31 18.23 2.34L15.46 2.5C15.21 2.51 14.96 2.43 14.77 2.27L12.63 0.52C12.26 0.21 11.73 0.21 11.36 0.52Z" fill="#397DF6" fill-opacity="1.000000" fill-rule="evenodd"/>
	<rect id="done-all-outline" width="16.000000" height="16.000000" transform="translate(4.000000 4.000000)" fill="#FFFFFF" fill-opacity="0"/>
	<g clip-path="url(#clip5661_2070)">
		<g opacity="0.000000">
			<path id="Vector" d="M4 4L20 4L20 20L4 20L4 4Z" fill="#FFFFFF" fill-opacity="1.000000" fill-rule="evenodd"/>
		</g>
		<path id="Vector" d="M15.08 8.14C15.01 8.08 14.93 8.04 14.84 8.02C14.76 7.99 14.67 7.99 14.58 8C14.49 8.01 14.41 8.03 14.33 8.08C14.26 8.12 14.19 8.18 14.14 8.25L9.47 14.25L7.18 11.46C7.13 11.39 7.06 11.33 6.98 11.29C6.91 11.24 6.82 11.21 6.73 11.2C6.64 11.19 6.55 11.2 6.47 11.22C6.38 11.24 6.3 11.29 6.23 11.34C6.16 11.4 6.1 11.47 6.06 11.55C6.02 11.62 5.99 11.71 5.98 11.8C5.98 11.89 5.99 11.98 6.01 12.06C6.04 12.15 6.08 12.23 6.14 12.3L8.92 15.75C8.98 15.83 9.06 15.89 9.15 15.93C9.24 15.97 9.34 16 9.44 16C9.55 16 9.65 15.98 9.75 15.94C9.85 15.89 9.93 15.82 9.99 15.74L15.22 9.08C15.27 9 15.31 8.92 15.33 8.84C15.35 8.75 15.35 8.66 15.34 8.58C15.33 8.49 15.3 8.4 15.25 8.33C15.21 8.25 15.15 8.19 15.08 8.14Z" fill="#FFFFFF" fill-opacity="1.000000" fill-rule="nonzero"/>
		<path id="Vector" d="M18.41 8.14C18.34 8.08 18.26 8.04 18.18 8.02C18.09 7.99 18 7.99 17.91 8C17.83 8.01 17.74 8.03 17.67 8.08C17.59 8.12 17.52 8.18 17.47 8.25L12.8 14.25L12.4 13.75L11.56 14.83L12.29 15.74C12.35 15.82 12.43 15.88 12.52 15.92C12.61 15.97 12.71 15.99 12.81 15.99C12.91 15.99 13.01 15.96 13.1 15.92C13.19 15.88 13.27 15.81 13.33 15.74L18.55 9.07C18.6 9 18.64 8.92 18.66 8.83C18.68 8.75 18.68 8.66 18.67 8.57C18.66 8.49 18.63 8.4 18.58 8.33C18.54 8.25 18.48 8.19 18.41 8.14Z" fill="#FFFFFF" fill-opacity="1.000000" fill-rule="nonzero"/>
		<path id="Vector" d="M9.8 12.7L10.66 11.62L10.53 11.46C10.48 11.39 10.41 11.33 10.33 11.28C10.25 11.23 10.17 11.2 10.08 11.19C9.99 11.18 9.9 11.18 9.81 11.21C9.73 11.23 9.65 11.27 9.57 11.33C9.51 11.38 9.45 11.45 9.41 11.53C9.37 11.61 9.34 11.69 9.33 11.78C9.32 11.86 9.33 11.95 9.35 12.04C9.38 12.12 9.42 12.2 9.47 12.27L9.8 12.7Z" fill="#FFFFFF" fill-opacity="1.000000" fill-rule="nonzero"/>
	</g>
</svg>
