<svg width="24.000000" height="24.000000" viewBox="0 0 24 24" fill="none" xmlns="http://www.w3.org/2000/svg" xmlns:xlink="http://www.w3.org/1999/xlink">
	<desc>
			Created with Pixso.
	</desc>
	<defs>
		<clipPath id="clip5661_1682">
			<rect id="paper-plane-outline" width="24.000000" height="24.000000" fill="white" fill-opacity="0"/>
		</clipPath>
	</defs>
	<rect id="paper-plane-outline" width="24.000000" height="24.000000" fill="#FFFFFF" fill-opacity="0"/>
	<g clip-path="url(#clip5661_1682)">
		<g opacity="0.000000">
			<path id="Vector" d="M0 0L24 0L24 24L0 24L0 0Z" fill="#000000" fill-opacity="1.000000" fill-rule="evenodd"/>
		</g>
		<path id="Vector" d="M21 3.99C20.98 3.9 20.96 3.81 20.94 3.73L20.94 3.63C20.89 3.52 20.82 3.42 20.74 3.33C20.65 3.26 20.55 3.19 20.45 3.14L20.36 3.14C20.26 3.07 20.16 3.02 20.04 2.99L20 2.99C19.9 2.98 19.79 2.98 19.7 2.99L1.69 8.99C1.49 9.06 1.32 9.19 1.2 9.36C1.07 9.53 1.01 9.73 1.01 9.94C1.01 10.16 1.07 10.36 1.2 10.53C1.32 10.7 1.49 10.83 1.69 10.9L10.22 13.74L13.07 22.27C13.13 22.47 13.26 22.64 13.43 22.76C13.6 22.89 13.8 22.95 14.02 22.95C14.23 22.95 14.43 22.89 14.6 22.76C14.77 22.64 14.9 22.47 14.97 22.27L20.97 4.26C20.99 4.18 21 4.09 21 3.99ZM16.29 6.28L10.73 11.86L5.15 9.99L16.29 6.28ZM14 18.84L12.14 13.27L17.7 7.69L14 18.84Z" fill="#000000" fill-opacity="1.000000" fill-rule="nonzero"/>
	</g>
</svg>
