<svg width="24.000000" height="24.000000" viewBox="0 0 24 24" fill="none" xmlns="http://www.w3.org/2000/svg" xmlns:xlink="http://www.w3.org/1999/xlink">
	<desc>
			Created with Pixso.
	</desc>
	<defs>
		<clipPath id="clip5661_2114">
			<rect id="pause-circle" width="24.000000" height="24.000000" fill="white" fill-opacity="0"/>
		</clipPath>
	</defs>
	<rect id="pause-circle" width="24.000000" height="24.000000" fill="#FFFFFF" fill-opacity="0"/>
	<g clip-path="url(#clip5661_2114)">
		<g opacity="0.000000">
			<path id="Vector" d="M0 0L24 0L24 24L0 24L0 0Z" fill="#000000" fill-opacity="1.000000" fill-rule="evenodd"/>
		</g>
		<path id="Vector" d="M12 2C10.02 2 8.08 2.58 6.44 3.68C4.79 4.78 3.51 6.34 2.76 8.17C2 10 1.8 12.01 2.19 13.95C2.57 15.89 3.53 17.67 4.92 19.07C6.32 20.46 8.1 21.42 10.04 21.8C11.98 22.19 13.99 21.99 15.82 21.23C17.65 20.48 19.21 19.2 20.31 17.55C21.41 15.91 22 13.97 22 12C22 10.68 21.74 9.38 21.23 8.17C20.73 6.95 19.99 5.85 19.07 4.92C18.14 4 17.04 3.26 15.82 2.76C14.61 2.25 13.31 2 12 2ZM10 15C10 15.26 9.89 15.51 9.7 15.7C9.51 15.89 9.26 16 9 16C8.73 16 8.48 15.89 8.29 15.7C8.1 15.51 8 15.26 8 15L8 9C8 8.73 8.1 8.48 8.29 8.29C8.48 8.1 8.73 8 9 8C9.26 8 9.51 8.1 9.7 8.29C9.89 8.48 10 8.73 10 9L10 15ZM16 15C16 15.26 15.89 15.51 15.7 15.7C15.51 15.89 15.26 16 15 16C14.73 16 14.48 15.89 14.29 15.7C14.1 15.51 14 15.26 14 15L14 9C14 8.73 14.1 8.48 14.29 8.29C14.48 8.1 14.73 8 15 8C15.26 8 15.51 8.1 15.7 8.29C15.89 8.48 16 8.73 16 9L16 15Z" fill="#000000" fill-opacity="1.000000" fill-rule="nonzero"/>
	</g>
</svg>
