<svg width="24.000000" height="16.000000" viewBox="0 0 24 16" fill="none" xmlns="http://www.w3.org/2000/svg" xmlns:xlink="http://www.w3.org/1999/xlink">
	<desc>
			Created with Pixso.
	</desc>
	<defs>
		<clipPath id="clip5661_2002">
			<rect id="paypal-svgrepo-com (4)" width="24.000000" height="16.000000" fill="white" fill-opacity="0"/>
		</clipPath>
	</defs>
	<rect id="paypal-svgrepo-com (4)" width="24.000000" height="16.000000" fill="#FFFFFF" fill-opacity="0"/>
	<g clip-path="url(#clip5661_2002)">
		<path id="Vector" d="M22.52 0L1.47 0C0.65 0 0 0.64 0 1.43L0 14.56C0 15.35 0.65 16 1.47 16L22.52 16C23.34 16 24 15.35 24 14.56L24 1.43C24 0.64 23.34 0 22.52 0Z" fill="#FFFFFF" fill-opacity="1.000000" fill-rule="nonzero"/>
		<path id="Vector" d="M1.47 0L22.52 0C23.34 0 24 0.64 24 1.43L24 14.56C24 15.35 23.34 16 22.52 16L1.47 16C0.65 16 0 15.35 0 14.56L0 1.43C0 0.64 0.65 0 1.47 0ZM1.47 1L22.52 1Q22.64 1 22.73 1.04Q22.8 1.07 22.87 1.13Q22.94 1.2 22.97 1.29Q23 1.36 23 1.43L23 14.56Q23 14.63 22.97 14.7Q22.94 14.79 22.87 14.86Q22.8 14.92 22.73 14.95Q22.64 15 22.52 15L1.47 15Q1.35 15 1.26 14.95Q1.19 14.92 1.12 14.86Q1.05 14.79 1.02 14.7Q1 14.63 1 14.56L1 1.43Q1 1.36 1.02 1.29Q1.05 1.2 1.12 1.13Q1.19 1.07 1.26 1.04Q1.35 1 1.47 1Z" fill="#F3F3F3" fill-opacity="1.000000" fill-rule="evenodd"/>
		<path id="Vector" d="M10.85 8.1L10.96 7.44L10.73 7.43L9.62 7.43L10.39 2.52C10.39 2.5 10.4 2.49 10.41 2.48C10.42 2.47 10.44 2.46 10.45 2.46L12.32 2.46C12.95 2.46 13.38 2.59 13.6 2.85C13.71 2.97 13.77 3.1 13.8 3.23C13.84 3.38 13.84 3.55 13.81 3.76L13.8 3.78L13.8 3.92L13.91 3.98C14 4.02 14.07 4.08 14.12 4.14C14.21 4.24 14.27 4.37 14.29 4.53C14.32 4.69 14.31 4.88 14.27 5.09C14.22 5.34 14.14 5.55 14.04 5.73C13.94 5.89 13.82 6.02 13.67 6.13C13.54 6.23 13.37 6.3 13.18 6.35C13 6.4 12.8 6.42 12.57 6.42L12.42 6.42C12.32 6.42 12.22 6.46 12.14 6.53C12.06 6.6 12.01 6.69 11.99 6.79L11.98 6.85L11.79 8.03L11.79 8.07C11.78 8.08 11.78 8.09 11.77 8.09C11.77 8.1 11.76 8.1 11.76 8.1L10.85 8.1Z" fill="#28356A" fill-opacity="1.000000" fill-rule="evenodd"/>
		<path id="Vector" d="M14.01 3.8C14 3.83 14 3.87 13.99 3.91C13.74 5.18 12.9 5.62 11.82 5.62L11.27 5.62C11.13 5.62 11.02 5.71 11 5.84L10.64 8.14C10.63 8.23 10.69 8.31 10.78 8.31L11.76 8.31C11.87 8.31 11.97 8.22 11.99 8.11L12 8.06L12.18 6.89L12.19 6.83C12.21 6.71 12.31 6.63 12.42 6.63L12.57 6.63C13.51 6.63 14.25 6.24 14.47 5.13C14.56 4.66 14.51 4.28 14.28 4C14.2 3.92 14.11 3.85 14.01 3.8Z" fill="#298FC2" fill-opacity="1.000000" fill-rule="evenodd"/>
		<path id="Vector" d="M13.75 3.69C13.71 3.68 13.67 3.67 13.63 3.66C13.59 3.65 13.55 3.65 13.51 3.64C13.36 3.61 13.2 3.6 13.02 3.6L11.56 3.6C11.52 3.6 11.49 3.61 11.45 3.63C11.39 3.66 11.34 3.72 11.32 3.8L11.01 5.79L11 5.84C11.02 5.71 11.13 5.62 11.27 5.62L11.82 5.62C12.9 5.62 13.74 5.18 13.99 3.91C14 3.87 14 3.83 14.01 3.8C13.95 3.76 13.88 3.73 13.8 3.71C13.79 3.7 13.77 3.7 13.75 3.69Z" fill="#22284F" fill-opacity="1.000000" fill-rule="evenodd"/>
		<path id="Vector" d="M11.32 3.8C11.34 3.72 11.39 3.66 11.45 3.63C11.49 3.61 11.52 3.6 11.56 3.6L13.02 3.6C13.2 3.6 13.36 3.62 13.51 3.64C13.55 3.65 13.59 3.65 13.63 3.66C13.67 3.67 13.71 3.68 13.75 3.69C13.77 3.7 13.79 3.7 13.81 3.71C13.88 3.73 13.95 3.76 14.01 3.8C14.08 3.33 14.01 3.01 13.75 2.72C13.47 2.4 12.97 2.26 12.32 2.26L10.45 2.26C10.32 2.26 10.21 2.36 10.19 2.49L9.41 7.45C9.39 7.55 9.47 7.64 9.56 7.64L10.72 7.64L11.32 3.8Z" fill="#28356A" fill-opacity="1.000000" fill-rule="evenodd"/>
		<path id="Vector" d="M5.33 9.45L3.97 9.45C3.87 9.45 3.79 9.52 3.78 9.61L3.23 13.13C3.22 13.2 3.27 13.26 3.34 13.26L3.99 13.26C4.08 13.26 4.16 13.19 4.18 13.1L4.33 12.15C4.34 12.06 4.42 11.99 4.52 11.99L4.95 11.99C5.85 11.99 6.37 11.55 6.5 10.69C6.56 10.31 6.51 10.01 6.33 9.8C6.13 9.57 5.79 9.45 5.33 9.45ZM5.49 10.74C5.42 11.23 5.04 11.23 4.68 11.23L4.47 11.23L4.62 10.31C4.63 10.25 4.67 10.21 4.73 10.21L4.82 10.21C5.07 10.21 5.3 10.21 5.42 10.35C5.5 10.44 5.52 10.56 5.49 10.74Z" fill="#28356A" fill-opacity="1.000000" fill-rule="evenodd"/>
		<path id="Vector" d="M9.45 10.69L8.8 10.69C8.74 10.69 8.69 10.73 8.69 10.79L8.66 10.97L8.61 10.91C8.47 10.7 8.15 10.63 7.84 10.63C7.12 10.63 6.5 11.18 6.38 11.95C6.31 12.34 6.4 12.7 6.62 12.96C6.82 13.19 7.11 13.29 7.45 13.29C8.03 13.29 8.35 12.92 8.35 12.92L8.32 13.1C8.31 13.17 8.36 13.23 8.43 13.23L9.02 13.23C9.12 13.23 9.2 13.16 9.21 13.07L9.56 10.82C9.58 10.76 9.52 10.69 9.45 10.69ZM8.54 11.97C8.48 12.34 8.18 12.6 7.8 12.6C7.61 12.6 7.46 12.54 7.36 12.42C7.27 12.3 7.23 12.14 7.26 11.96C7.32 11.59 7.62 11.33 7.99 11.33C8.18 11.33 8.33 11.39 8.43 11.51C8.53 11.62 8.57 11.79 8.54 11.97Z" fill="#28356A" fill-opacity="1.000000" fill-rule="evenodd"/>
		<path id="Vector" d="M12.89 10.75L12.23 10.75C12.17 10.75 12.11 10.78 12.07 10.83L11.17 12.17L10.78 10.88C10.76 10.8 10.68 10.75 10.6 10.75L9.95 10.75C9.87 10.75 9.82 10.83 9.84 10.9L10.57 13.03L9.89 14C9.83 14.07 9.89 14.18 9.98 14.18L10.64 14.18C10.7 14.18 10.76 14.15 10.79 14.09L12.98 10.93C13.03 10.85 12.98 10.75 12.89 10.75Z" fill="#28356A" fill-opacity="1.000000" fill-rule="evenodd"/>
		<path id="Vector" d="M15.08 9.45L13.71 9.45C13.62 9.45 13.54 9.52 13.52 9.61L12.97 13.13C12.96 13.2 13.01 13.26 13.08 13.26L13.79 13.26C13.85 13.26 13.91 13.21 13.92 13.15L14.07 12.15C14.09 12.06 14.17 11.99 14.26 11.99L14.69 11.99C15.59 11.99 16.11 11.55 16.25 10.69C16.31 10.31 16.25 10.01 16.07 9.8C15.88 9.57 15.54 9.45 15.08 9.45ZM15.24 10.74C15.16 11.23 14.79 11.23 14.43 11.23L14.22 11.23L14.36 10.31C14.37 10.25 14.42 10.21 14.48 10.21L14.57 10.21C14.82 10.21 15.05 10.21 15.17 10.35C15.24 10.44 15.26 10.56 15.24 10.74Z" fill="#298FC2" fill-opacity="1.000000" fill-rule="evenodd"/>
		<path id="Vector" d="M19.2 10.69L18.54 10.69C18.49 10.69 18.44 10.73 18.43 10.79L18.4 10.97L18.36 10.91C18.21 10.7 17.9 10.63 17.58 10.63C16.86 10.63 16.24 11.18 16.12 11.95C16.06 12.34 16.15 12.7 16.37 12.96C16.57 13.19 16.85 13.29 17.19 13.29C17.77 13.29 18.1 12.92 18.1 12.92L18.07 13.1C18.06 13.17 18.11 13.23 18.18 13.23L18.77 13.23C18.86 13.23 18.94 13.16 18.96 13.07L19.31 10.82C19.32 10.76 19.27 10.69 19.2 10.69ZM18.29 11.97C18.22 12.34 17.93 12.6 17.55 12.6C17.36 12.6 17.21 12.54 17.11 12.42C17.01 12.3 16.97 12.14 17.01 11.96C17.06 11.59 17.37 11.33 17.74 11.33C17.92 11.33 18.08 11.39 18.17 11.51C18.27 11.62 18.31 11.79 18.29 11.97Z" fill="#298FC2" fill-opacity="1.000000" fill-rule="evenodd"/>
		<path id="Vector" d="M19.91 9.55L19.35 13.13C19.34 13.2 19.4 13.26 19.47 13.26L20.03 13.26C20.12 13.26 20.2 13.19 20.22 13.1L20.77 9.58C20.78 9.51 20.73 9.45 20.66 9.45L20.03 9.45C19.97 9.45 19.92 9.49 19.91 9.55Z" fill="#298FC2" fill-opacity="1.000000" fill-rule="evenodd"/>
	</g>
</svg>
