<svg width="24.000000" height="24.000000" viewBox="0 0 24 24" fill="none" xmlns="http://www.w3.org/2000/svg" xmlns:xlink="http://www.w3.org/1999/xlink">
	<desc>
			Created with Pixso.
	</desc>
	<defs>
		<clipPath id="clip5661_1912">
			<rect id="person-remove" width="24.000000" height="24.000000" fill="white" fill-opacity="0"/>
		</clipPath>
	</defs>
	<rect id="person-remove" width="24.000000" height="24.000000" fill="#FFFFFF" fill-opacity="0"/>
	<g clip-path="url(#clip5661_1912)">
		<g opacity="0.000000">
			<path id="Vector" d="M0 0L24 0L24 24L0 24L0 0Z" fill="#000000" fill-opacity="1.000000" fill-rule="evenodd"/>
		</g>
		<path id="Vector" d="M21 6L17 6C16.73 6 16.48 6.1 16.29 6.29C16.1 6.48 16 6.73 16 7C16 7.26 16.1 7.51 16.29 7.7C16.48 7.89 16.73 8 17 8L21 8C21.26 8 21.51 7.89 21.7 7.7C21.89 7.51 22 7.26 22 7C22 6.73 21.89 6.48 21.7 6.29C21.51 6.1 21.26 6 21 6Z" fill="#000000" fill-opacity="1.000000" fill-rule="nonzero"/>
		<path id="Vector" d="M10 11C10.79 11 11.56 10.76 12.22 10.32C12.88 9.88 13.39 9.26 13.69 8.53C13.99 7.79 14.07 6.99 13.92 6.21C13.76 5.44 13.38 4.73 12.82 4.17C12.26 3.61 11.55 3.23 10.78 3.07C10 2.92 9.2 3 8.46 3.3C7.73 3.6 7.11 4.11 6.67 4.77C6.23 5.43 6 6.2 6 7C6 8.06 6.42 9.07 7.17 9.82C7.92 10.57 8.93 11 10 11Z" fill="#000000" fill-opacity="1.000000" fill-rule="nonzero"/>
		<path id="Vector" d="M16 21C16.26 21 16.51 20.89 16.7 20.7C16.89 20.51 17 20.26 17 20C17 18.14 16.26 16.36 14.94 15.05C13.63 13.73 11.85 13 10 13C8.14 13 6.36 13.73 5.05 15.05C3.73 16.36 3 18.14 3 20C3 20.26 3.1 20.51 3.29 20.7C3.48 20.89 3.73 21 4 21L16 21Z" fill="#000000" fill-opacity="1.000000" fill-rule="nonzero"/>
	</g>
</svg>
