<svg width="24.000000" height="24.000000" viewBox="0 0 24 24" fill="none" xmlns="http://www.w3.org/2000/svg" xmlns:xlink="http://www.w3.org/1999/xlink">
	<desc>
			Created with Pixso.
	</desc>
	<defs>
		<clipPath id="clip5661_1822">
			<rect id="person" width="24.000000" height="24.000000" fill="white" fill-opacity="0"/>
		</clipPath>
	</defs>
	<rect id="person" width="24.000000" height="24.000000" fill="#FFFFFF" fill-opacity="0"/>
	<g clip-path="url(#clip5661_1822)">
		<g opacity="0.000000">
			<path id="Vector" d="M0 0L24 0L24 24L0 24L0 0Z" fill="#000000" fill-opacity="1.000000" fill-rule="evenodd"/>
		</g>
		<path id="Vector" d="M12 11C12.79 11 13.56 10.76 14.22 10.32C14.88 9.88 15.39 9.26 15.69 8.53C15.99 7.79 16.07 6.99 15.92 6.21C15.76 5.44 15.38 4.73 14.82 4.17C14.26 3.61 13.55 3.23 12.78 3.07C12 2.92 11.2 3 10.46 3.3C9.73 3.6 9.11 4.11 8.67 4.77C8.23 5.43 8 6.2 8 7C8 8.06 8.42 9.07 9.17 9.82C9.92 10.57 10.93 11 12 11Z" fill="#000000" fill-opacity="1.000000" fill-rule="nonzero"/>
		<path id="Vector" d="M18 21C18.26 21 18.51 20.89 18.7 20.7C18.89 20.51 19 20.26 19 20C19 18.14 18.26 16.36 16.94 15.05C15.63 13.73 13.85 13 12 13C10.14 13 8.36 13.73 7.05 15.05C5.73 16.36 5 18.14 5 20C5 20.26 5.1 20.51 5.29 20.7C5.48 20.89 5.73 21 6 21L18 21Z" fill="#000000" fill-opacity="1.000000" fill-rule="nonzero"/>
	</g>
</svg>
