<svg width="24.000000" height="24.000000" viewBox="0 0 24 24" fill="none" xmlns="http://www.w3.org/2000/svg" xmlns:xlink="http://www.w3.org/1999/xlink">
	<desc>
			Created with Pixso.
	</desc>
	<defs>
		<clipPath id="clip5661_1764">
			<rect id="pin-outline" width="24.000000" height="24.000000" fill="white" fill-opacity="0"/>
		</clipPath>
	</defs>
	<rect id="pin-outline" width="24.000000" height="24.000000" fill="#FFFFFF" fill-opacity="0"/>
	<g clip-path="url(#clip5661_1764)">
		<g opacity="0.000000">
			<path id="Vector" d="M0 0L24 0L24 24L0 24L0 0Z" fill="#000000" fill-opacity="1.000000" fill-rule="evenodd"/>
		</g>
		<path id="Vector" d="M12 2C9.89 1.99 7.86 2.83 6.37 4.31C4.87 5.79 4.02 7.81 4 9.92C4 15.4 11.05 21.5 11.35 21.76C11.53 21.91 11.76 22 12 22C12.23 22 12.46 21.91 12.65 21.76C13 21.5 20 15.4 20 9.92C19.97 7.81 19.12 5.79 17.62 4.31C16.13 2.83 14.1 1.99 12 2ZM12 19.65C10.33 18.06 6 13.65 6 9.92C6 8.32 6.63 6.8 7.75 5.67C8.88 4.55 10.4 3.92 12 3.92C13.59 3.92 15.11 4.55 16.24 5.67C17.36 6.8 18 8.32 18 9.92C18 13.62 13.67 18.06 12 19.65Z" fill="#000000" fill-opacity="1.000000" fill-rule="nonzero"/>
		<path id="Vector" d="M12 6C11.3 6 10.63 6.2 10.05 6.58C9.47 6.97 9.03 7.52 8.76 8.16C8.5 8.8 8.43 9.5 8.56 10.18C8.7 10.86 9.03 11.48 9.52 11.97C10.01 12.46 10.63 12.79 11.31 12.93C11.99 13.06 12.69 12.99 13.33 12.73C13.97 12.46 14.52 12.02 14.91 11.44C15.29 10.86 15.5 10.19 15.5 9.5C15.5 8.57 15.13 7.68 14.47 7.02C13.81 6.36 12.92 6 12 6ZM12 11C11.7 11 11.41 10.91 11.16 10.74C10.92 10.58 10.72 10.34 10.61 10.07C10.5 9.79 10.47 9.49 10.52 9.2C10.58 8.91 10.72 8.64 10.93 8.43C11.14 8.22 11.41 8.08 11.7 8.02C11.99 7.97 12.29 8 12.57 8.11C12.84 8.22 13.08 8.41 13.24 8.66C13.41 8.91 13.5 9.2 13.5 9.5C13.5 9.89 13.34 10.27 13.06 10.56C12.77 10.84 12.39 11 12 11Z" fill="#000000" fill-opacity="1.000000" fill-rule="nonzero"/>
	</g>
</svg>
