<svg width="24.000000" height="24.000000" viewBox="0 0 24 24" fill="none" xmlns="http://www.w3.org/2000/svg" xmlns:xlink="http://www.w3.org/1999/xlink">
	<desc>
			Created with Pixso.
	</desc>
	<defs>
		<clipPath id="clip5661_1936">
			<rect id="pin" width="24.000000" height="24.000000" fill="white" fill-opacity="0"/>
		</clipPath>
	</defs>
	<rect id="pin" width="24.000000" height="24.000000" fill="#FFFFFF" fill-opacity="0"/>
	<g clip-path="url(#clip5661_1936)">
		<g opacity="0.000000">
			<path id="Vector" d="M0 0L24 0L24 24L0 24L0 0Z" fill="#000000" fill-opacity="1.000000" fill-rule="evenodd"/>
		</g>
		<path id="Vector" d="M13.5 9.5C13.5 10.32 12.82 11 12 11C11.17 11 10.5 10.32 10.5 9.5C10.5 8.67 11.17 8 12 8C12.82 8 13.5 8.67 13.5 9.5Z" fill="#000000" fill-opacity="1.000000" fill-rule="evenodd"/>
		<path id="Vector" d="M12 2C9.89 1.99 7.86 2.83 6.37 4.31C4.87 5.79 4.02 7.81 4 9.92C4 15.4 11.05 21.5 11.35 21.76C11.53 21.91 11.76 22 12 22C12.23 22 12.46 21.91 12.65 21.76C13 21.5 20 15.4 20 9.92C19.97 7.81 19.12 5.79 17.62 4.31C16.13 2.83 14.1 1.99 12 2ZM12 13C11.3 13 10.63 12.79 10.05 12.41C9.47 12.02 9.03 11.47 8.76 10.83C8.5 10.19 8.43 9.49 8.56 8.81C8.7 8.13 9.03 7.51 9.52 7.02C10.01 6.53 10.63 6.2 11.31 6.06C11.99 5.93 12.69 6 13.33 6.26C13.97 6.53 14.52 6.97 14.91 7.55C15.29 8.13 15.5 8.8 15.5 9.5C15.5 10.42 15.13 11.31 14.47 11.97C13.81 12.63 12.92 13 12 13Z" fill="#000000" fill-opacity="1.000000" fill-rule="nonzero"/>
	</g>
</svg>
