<svg width="24.000000" height="24.000000" viewBox="0 0 24 24" fill="none" xmlns="http://www.w3.org/2000/svg" xmlns:xlink="http://www.w3.org/1999/xlink">
	<desc>
			Created with Pixso.
	</desc>
	<defs>
		<clipPath id="clip5661_2119">
			<rect id="play-circle" width="24.000000" height="24.000000" fill="white" fill-opacity="0"/>
		</clipPath>
	</defs>
	<rect id="play-circle" width="24.000000" height="24.000000" fill="#FFFFFF" fill-opacity="0"/>
	<g clip-path="url(#clip5661_2119)">
		<g opacity="0.000000">
			<path id="Vector" d="M0 0L24 0L24 24L0 24L0 0Z" fill="#000000" fill-opacity="1.000000" fill-rule="evenodd"/>
		</g>
		<path id="Vector" d="M11.5 14.6L14.31 12L11.5 9.39L11.5 14.6Z" fill="#000000" fill-opacity="1.000000" fill-rule="nonzero"/>
		<path id="Vector" d="M12 2C10.02 2 8.08 2.58 6.44 3.68C4.79 4.78 3.51 6.34 2.76 8.17C2 10 1.8 12.01 2.19 13.95C2.57 15.89 3.53 17.67 4.92 19.07C6.32 20.46 8.1 21.42 10.04 21.8C11.98 22.19 13.99 21.99 15.82 21.23C17.65 20.48 19.21 19.2 20.31 17.55C21.41 15.91 22 13.97 22 12C22 10.68 21.74 9.38 21.23 8.17C20.73 6.95 19.99 5.85 19.07 4.92C18.14 4 17.04 3.26 15.82 2.76C14.61 2.25 13.31 2 12 2ZM16 13.18L12.36 16.54C12.04 16.83 11.62 16.99 11.2 17C10.96 16.99 10.72 16.94 10.51 16.85C10.21 16.73 9.96 16.52 9.78 16.26C9.6 15.99 9.51 15.68 9.51 15.37L9.51 8.63C9.51 8.31 9.6 8 9.78 7.73C9.96 7.47 10.21 7.26 10.51 7.14C10.81 7.01 11.15 6.96 11.48 7.02C11.8 7.07 12.11 7.22 12.36 7.45L16 10.82C16.16 10.96 16.29 11.15 16.38 11.35C16.47 11.55 16.51 11.77 16.51 12C16.51 12.22 16.47 12.44 16.38 12.64C16.29 12.84 16.16 13.03 16 13.18Z" fill="#000000" fill-opacity="1.000000" fill-rule="nonzero"/>
	</g>
</svg>
