<svg width="24.000000" height="24.000000" viewBox="0 0 24 24" fill="none" xmlns="http://www.w3.org/2000/svg" xmlns:xlink="http://www.w3.org/1999/xlink">
	<desc>
			Created with Pixso.
	</desc>
	<defs>
		<clipPath id="clip5661_1875">
			<rect id="plus-circle" width="24.000000" height="24.000000" fill="white" fill-opacity="0"/>
		</clipPath>
	</defs>
	<rect id="plus-circle" width="24.000000" height="24.000000" fill="#FFFFFF" fill-opacity="0"/>
	<g clip-path="url(#clip5661_1875)">
		<g opacity="0.000000">
			<path id="Vector" d="M0 0L24 0L24 24L0 24L0 0Z" fill="#000000" fill-opacity="1.000000" fill-rule="evenodd"/>
		</g>
		<path id="Vector" d="M12 2C10.02 2 8.08 2.58 6.44 3.68C4.79 4.78 3.51 6.34 2.76 8.17C2 10 1.8 12.01 2.19 13.95C2.57 15.89 3.53 17.67 4.92 19.07C6.32 20.46 8.1 21.42 10.04 21.8C11.98 22.19 13.99 21.99 15.82 21.23C17.65 20.48 19.21 19.2 20.31 17.55C21.41 15.91 22 13.97 22 12C22 10.68 21.74 9.38 21.23 8.17C20.73 6.95 19.99 5.85 19.07 4.92C18.14 4 17.04 3.26 15.82 2.76C14.61 2.25 13.31 2 12 2ZM15 13L13 13L13 15C13 15.26 12.89 15.51 12.7 15.7C12.51 15.89 12.26 16 12 16C11.73 16 11.48 15.89 11.29 15.7C11.1 15.51 11 15.26 11 15L11 13L9 13C8.73 13 8.48 12.89 8.29 12.7C8.1 12.51 8 12.26 8 12C8 11.73 8.1 11.48 8.29 11.29C8.48 11.1 8.73 11 9 11L11 11L11 9C11 8.73 11.1 8.48 11.29 8.29C11.48 8.1 11.73 8 12 8C12.26 8 12.51 8.1 12.7 8.29C12.89 8.48 13 8.73 13 9L13 11L15 11C15.26 11 15.51 11.1 15.7 11.29C15.89 11.48 16 11.73 16 12C16 12.26 15.89 12.51 15.7 12.7C15.51 12.89 15.26 13 15 13Z" fill="#000000" fill-opacity="1.000000" fill-rule="nonzero"/>
	</g>
</svg>
