<svg width="24.000000" height="24.000000" viewBox="0 0 24 24" fill="none" xmlns="http://www.w3.org/2000/svg" xmlns:xlink="http://www.w3.org/1999/xlink">
	<desc>
			Created with Pixso.
	</desc>
	<defs>
		<clipPath id="clip5661_1817">
			<rect id="plus-square" width="24.000000" height="24.000000" fill="white" fill-opacity="0"/>
		</clipPath>
	</defs>
	<rect id="plus-square" width="24.000000" height="24.000000" fill="#FFFFFF" fill-opacity="0"/>
	<g clip-path="url(#clip5661_1817)">
		<g opacity="0.000000">
			<path id="Vector" d="M0 0L24 0L24 24L0 24L0 0Z" fill="#000000" fill-opacity="1.000000" fill-rule="evenodd"/>
		</g>
		<path id="Vector" d="M18 3L6 3C5.2 3 4.44 3.31 3.87 3.87C3.31 4.44 3 5.2 3 6L3 18C3 18.79 3.31 19.55 3.87 20.12C4.44 20.68 5.2 21 6 21L18 21C18.79 21 19.55 20.68 20.12 20.12C20.68 19.55 21 18.79 21 18L21 6C21 5.2 20.68 4.44 20.12 3.87C19.55 3.31 18.79 3 18 3ZM15 13L13 13L13 15C13 15.26 12.89 15.51 12.7 15.7C12.51 15.89 12.26 16 12 16C11.73 16 11.48 15.89 11.29 15.7C11.1 15.51 11 15.26 11 15L11 13L9 13C8.73 13 8.48 12.89 8.29 12.7C8.1 12.51 8 12.26 8 12C8 11.73 8.1 11.48 8.29 11.29C8.48 11.1 8.73 11 9 11L11 11L11 9C11 8.73 11.1 8.48 11.29 8.29C11.48 8.1 11.73 8 12 8C12.26 8 12.51 8.1 12.7 8.29C12.89 8.48 13 8.73 13 9L13 11L15 11C15.26 11 15.51 11.1 15.7 11.29C15.89 11.48 16 11.73 16 12C16 12.26 15.89 12.51 15.7 12.7C15.51 12.89 15.26 13 15 13Z" fill="#000000" fill-opacity="1.000000" fill-rule="nonzero"/>
	</g>
</svg>
