<svg width="24.000000" height="24.000000" viewBox="0 0 24 24" fill="none" xmlns="http://www.w3.org/2000/svg" xmlns:xlink="http://www.w3.org/1999/xlink">
	<desc>
			Created with Pixso.
	</desc>
	<defs>
		<clipPath id="clip5661_1995">
			<rect id="RecaptchaLogo 1" width="24.000000" height="24.000000" fill="white" fill-opacity="0"/>
		</clipPath>
	</defs>
	<rect id="RecaptchaLogo 1" width="24.000000" height="24.000000" fill="#FFFFFF" fill-opacity="0"/>
	<g clip-path="url(#clip5661_1995)">
		<path id="Vector" d="M18.71 9.93C18.71 9.83 18.71 9.73 18.71 9.64L18.71 4.2L17.2 5.7C15.97 4.2 14.1 3.23 12.01 3.23C9.82 3.23 7.88 4.28 6.66 5.89L9.12 8.38C9.37 7.93 9.71 7.55 10.12 7.26C10.55 6.92 11.16 6.65 12.01 6.65C12.11 6.65 12.19 6.66 12.24 6.68C13.29 6.77 14.19 7.34 14.73 8.18L12.98 9.92C15.19 9.91 17.69 9.91 18.71 9.92L18.71 9.93Z" fill="#1C3AA9" fill-opacity="1.000000" fill-rule="nonzero"/>
		<path id="Vector" d="M11.97 3.23C11.87 3.23 11.77 3.24 11.68 3.24L6.24 3.24L7.74 4.74C6.24 5.98 5.28 7.85 5.28 9.94C5.28 12.13 6.32 14.06 7.93 15.29L10.42 12.83C9.97 12.58 9.59 12.24 9.3 11.83C8.96 11.4 8.69 10.79 8.69 9.94C8.69 9.84 8.7 9.76 8.72 9.71C8.81 8.66 9.38 7.76 10.22 7.22L11.96 8.97C11.96 6.76 11.95 4.26 11.97 3.23L11.97 3.23Z" fill="#4285F4" fill-opacity="1.000000" fill-rule="nonzero"/>
		<path id="Vector" d="M5.28 9.94C5.28 10.04 5.28 10.14 5.28 10.23L5.28 15.67L6.79 14.17C8.02 15.67 9.89 16.63 11.99 16.63C14.17 16.63 16.11 15.59 17.33 13.98L14.87 11.49C14.63 11.94 14.28 12.32 13.87 12.61C13.44 12.95 12.83 13.22 11.99 13.22C11.88 13.22 11.8 13.21 11.75 13.19C10.7 13.1 9.8 12.53 9.26 11.69L11.01 9.95C8.8 9.95 6.3 9.96 5.28 9.94L5.28 9.94Z" fill="#ABABAB" fill-opacity="1.000000" fill-rule="nonzero"/>
		<path id="Vector" d="M6.41 19.23C6.24 19.23 6.1 19.26 5.97 19.33C5.84 19.39 5.73 19.47 5.64 19.59C5.55 19.7 5.48 19.84 5.43 20C5.39 20.16 5.36 20.33 5.36 20.53L5.36 21.1C5.36 21.3 5.39 21.48 5.43 21.64C5.48 21.8 5.55 21.93 5.64 22.04C5.72 22.16 5.83 22.24 5.95 22.3C6.08 22.36 6.22 22.4 6.37 22.4C6.53 22.4 6.67 22.37 6.79 22.33C6.91 22.28 7.01 22.21 7.09 22.12C7.18 22.04 7.24 21.93 7.28 21.8C7.33 21.68 7.35 21.54 7.36 21.38L6.97 21.38C6.96 21.5 6.94 21.6 6.92 21.69C6.9 21.78 6.86 21.85 6.82 21.9C6.77 21.96 6.71 22 6.64 22.03C6.57 22.05 6.48 22.07 6.37 22.07C6.26 22.07 6.16 22.04 6.08 21.99C6.01 21.94 5.94 21.87 5.89 21.78C5.84 21.7 5.81 21.59 5.79 21.48C5.76 21.36 5.75 21.23 5.75 21.1L5.75 20.53C5.75 20.38 5.77 20.25 5.79 20.13C5.82 20.01 5.86 19.91 5.91 19.83C5.97 19.75 6.03 19.68 6.12 19.64C6.2 19.59 6.29 19.57 6.41 19.57C6.5 19.57 6.58 19.58 6.65 19.61C6.72 19.64 6.77 19.68 6.82 19.74C6.86 19.79 6.9 19.86 6.92 19.95C6.95 20.04 6.96 20.14 6.97 20.26L7.36 20.26C7.36 20.1 7.33 19.95 7.28 19.82C7.24 19.69 7.18 19.59 7.1 19.5C7.02 19.41 6.92 19.35 6.8 19.3C6.69 19.26 6.56 19.23 6.41 19.23ZM15.95 19.23C15.79 19.23 15.64 19.26 15.51 19.33C15.38 19.39 15.27 19.47 15.18 19.59C15.09 19.7 15.03 19.84 14.98 20C14.93 20.16 14.91 20.33 14.91 20.53L14.91 21.1C14.91 21.3 14.93 21.48 14.98 21.64C15.03 21.8 15.09 21.93 15.18 22.04C15.27 22.16 15.37 22.24 15.5 22.3C15.62 22.36 15.76 22.4 15.92 22.4C16.08 22.4 16.21 22.37 16.33 22.33C16.46 22.28 16.56 22.21 16.64 22.12C16.72 22.04 16.78 21.93 16.83 21.8C16.87 21.68 16.9 21.54 16.91 21.38L16.52 21.38C16.51 21.5 16.49 21.6 16.47 21.69C16.44 21.78 16.41 21.85 16.36 21.9C16.31 21.96 16.26 22 16.18 22.03C16.11 22.05 16.02 22.07 15.92 22.07C15.8 22.07 15.71 22.04 15.63 21.99C15.55 21.94 15.49 21.87 15.44 21.78C15.39 21.7 15.35 21.59 15.33 21.48C15.31 21.36 15.3 21.23 15.3 21.1L15.3 20.53C15.3 20.38 15.31 20.25 15.34 20.13C15.36 20.01 15.4 19.91 15.46 19.83C15.51 19.75 15.58 19.68 15.66 19.64C15.74 19.59 15.84 19.57 15.95 19.57C16.05 19.57 16.13 19.58 16.19 19.61C16.26 19.64 16.32 19.68 16.36 19.74C16.41 19.79 16.44 19.86 16.47 19.95C16.49 20.04 16.51 20.14 16.52 20.26L16.91 20.26C16.9 20.1 16.87 19.95 16.83 19.82C16.78 19.69 16.72 19.59 16.64 19.5C16.56 19.41 16.46 19.35 16.35 19.3C16.23 19.26 16.1 19.23 15.95 19.23ZM8.64 19.28L7.64 22.35L8.04 22.35L8.28 21.55L9.32 21.55L9.56 22.35L9.96 22.35L8.97 19.28L8.64 19.28ZM10.38 19.28L10.38 22.35L10.77 22.35L10.77 21.15L11.36 21.15C11.51 21.15 11.64 21.13 11.75 21.09C11.87 21.04 11.96 20.98 12.04 20.91C12.12 20.83 12.18 20.73 12.22 20.61C12.26 20.5 12.28 20.36 12.28 20.22C12.28 20.08 12.26 19.95 12.22 19.84C12.18 19.72 12.12 19.63 12.04 19.54C11.96 19.46 11.87 19.39 11.75 19.35C11.64 19.3 11.51 19.28 11.36 19.28L10.38 19.28ZM12.57 19.28L12.57 19.61L13.38 19.61L13.38 22.35L13.77 22.35L13.77 19.61L14.58 19.61L14.58 19.28L12.57 19.28ZM17.43 19.28L17.43 22.35L17.82 22.35L17.82 20.93L19.05 20.93L19.05 22.35L19.44 22.35L19.44 19.28L19.05 19.28L19.05 20.6L17.82 20.6L17.82 19.28L17.43 19.28ZM20.91 19.28L19.92 22.35L20.32 22.35L20.55 21.55L21.59 21.55L21.84 22.35L22.24 22.35L21.24 19.28L20.91 19.28ZM10.77 19.61L11.36 19.61C11.45 19.61 11.53 19.63 11.6 19.66C11.67 19.69 11.72 19.74 11.77 19.8C11.81 19.85 11.84 19.92 11.86 19.99C11.88 20.07 11.89 20.14 11.89 20.22C11.89 20.31 11.88 20.39 11.86 20.46C11.84 20.53 11.81 20.6 11.77 20.65C11.72 20.7 11.67 20.74 11.6 20.77C11.53 20.8 11.45 20.82 11.36 20.82L10.77 20.82L10.77 19.61ZM8.8 19.82L9.22 21.22L8.38 21.22L8.8 19.82ZM21.07 19.82L21.5 21.22L20.66 21.22L21.07 19.82ZM2.87 20.02C2.77 20.02 2.69 20.05 2.62 20.1C2.55 20.15 2.49 20.21 2.45 20.3L2.44 20.07L2.08 20.07L2.08 22.35L2.45 22.35L2.45 20.72C2.48 20.62 2.53 20.54 2.6 20.49C2.67 20.43 2.75 20.4 2.85 20.4C2.88 20.4 2.91 20.4 2.94 20.41C2.96 20.41 2.99 20.41 3.02 20.42L3.02 20.05C3.01 20.05 3 20.05 2.99 20.04C2.98 20.04 2.97 20.04 2.95 20.03C2.94 20.03 2.92 20.03 2.91 20.03C2.89 20.03 2.88 20.02 2.87 20.02ZM4.13 20.02C4.02 20.02 3.91 20.04 3.81 20.08C3.71 20.12 3.62 20.18 3.54 20.27C3.46 20.35 3.4 20.47 3.35 20.61C3.31 20.75 3.28 20.92 3.28 21.12L3.28 21.37C3.28 21.55 3.3 21.7 3.34 21.83C3.38 21.96 3.44 22.06 3.52 22.15C3.6 22.23 3.69 22.29 3.8 22.33C3.91 22.37 4.03 22.4 4.17 22.4C4.27 22.4 4.36 22.39 4.43 22.37C4.51 22.35 4.58 22.32 4.64 22.29C4.7 22.26 4.76 22.22 4.8 22.18C4.84 22.14 4.88 22.1 4.91 22.05L4.72 21.82C4.69 21.85 4.65 21.89 4.62 21.92C4.58 21.95 4.54 21.98 4.5 22C4.46 22.03 4.41 22.04 4.36 22.06C4.31 22.07 4.25 22.08 4.19 22.08C4.02 22.08 3.88 22.02 3.79 21.91C3.7 21.8 3.65 21.62 3.65 21.37L3.65 21.32L4.93 21.32L4.93 21.1C4.93 20.93 4.92 20.77 4.89 20.64C4.86 20.51 4.81 20.39 4.74 20.3C4.68 20.21 4.6 20.14 4.5 20.1C4.39 20.05 4.27 20.02 4.13 20.02ZM4.13 20.35C4.21 20.35 4.28 20.36 4.33 20.39C4.38 20.42 4.43 20.46 4.46 20.51C4.49 20.57 4.51 20.63 4.53 20.71C4.54 20.78 4.55 20.86 4.56 20.95L4.56 21L3.66 21C3.66 20.87 3.68 20.77 3.7 20.68C3.73 20.6 3.76 20.53 3.8 20.48C3.84 20.43 3.89 20.39 3.95 20.37C4 20.35 4.06 20.35 4.13 20.35Z" fill="#A6A6A6" fill-opacity="1.000000" fill-rule="nonzero"/>
	</g>
</svg>
