<svg width="24.000000" height="24.000000" viewBox="0 0 24 24" fill="none" xmlns="http://www.w3.org/2000/svg" xmlns:xlink="http://www.w3.org/1999/xlink">
	<desc>
			Created with Pixso.
	</desc>
	<defs>
		<clipPath id="clip5661_2025">
			<rect id="settings-outline" width="24.000000" height="24.000000" fill="white" fill-opacity="0"/>
		</clipPath>
	</defs>
	<rect id="settings-outline" width="24.000000" height="24.000000" fill="#FFFFFF" fill-opacity="0"/>
	<g clip-path="url(#clip5661_2025)">
		<g opacity="0.000000">
			<path id="Vector" d="M0 0L24 0L24 24L0 24L0 0Z" fill="#000000" fill-opacity="1.000000" fill-rule="evenodd"/>
		</g>
		<path id="&lt;Group&gt;" d="M8.6 22C8.12 21.99 7.64 21.83 7.26 21.54L5.19 20C4.71 19.62 4.39 19.08 4.3 18.48C4.21 17.88 4.35 17.27 4.69 16.78C4.88 16.51 4.99 16.2 5.03 15.87C5.07 15.55 5.04 15.22 4.93 14.92L4.87 14.76C4.79 14.48 4.65 14.22 4.45 14.01C4.26 13.8 4.01 13.64 3.75 13.54L3.59 13.54C3 13.34 2.52 12.92 2.24 12.37C1.96 11.82 1.91 11.18 2.1 10.6L2.93 8C3 7.69 3.14 7.41 3.33 7.17C3.53 6.93 3.77 6.73 4.05 6.59C4.3 6.45 4.58 6.37 4.87 6.35C5.16 6.33 5.45 6.37 5.73 6.47C6.02 6.57 6.34 6.59 6.65 6.54C6.96 6.49 7.25 6.36 7.51 6.18L7.64 6.08C7.86 5.89 8.05 5.66 8.17 5.4C8.3 5.14 8.36 4.86 8.37 4.57L8.37 4.33C8.36 3.71 8.6 3.12 9.03 2.69C9.46 2.25 10.04 2 10.66 2L13.21 2C13.5 2 13.8 2.06 14.07 2.17C14.35 2.29 14.6 2.45 14.81 2.67C15.25 3.11 15.49 3.72 15.49 4.35L15.49 4.63C15.48 4.9 15.54 5.17 15.66 5.42C15.78 5.67 15.96 5.89 16.18 6.06L16.29 6.14C16.51 6.3 16.77 6.41 17.05 6.46C17.33 6.51 17.61 6.48 17.87 6.4L18.21 6.29C18.5 6.19 18.81 6.15 19.11 6.18C19.41 6.2 19.71 6.29 19.98 6.43C20.24 6.57 20.48 6.76 20.67 7C20.87 7.23 21.01 7.5 21.1 7.8L21.89 10.32C22.07 10.9 22.02 11.53 21.75 12.07C21.47 12.62 21 13.04 20.43 13.25L20.23 13.32C19.93 13.41 19.66 13.58 19.45 13.8C19.24 14.02 19.08 14.3 19 14.6C18.92 14.87 18.9 15.16 18.94 15.45C18.98 15.73 19.09 16 19.25 16.25L19.51 16.62C19.85 17.13 19.99 17.74 19.9 18.34C19.8 18.94 19.49 19.48 19.01 19.86L17 21.41C16.75 21.59 16.47 21.72 16.18 21.8C15.88 21.87 15.57 21.89 15.27 21.84C14.97 21.79 14.68 21.68 14.42 21.51C14.17 21.34 13.95 21.13 13.78 20.88L13.66 20.71C13.49 20.46 13.27 20.26 13.01 20.12C12.74 19.99 12.45 19.92 12.16 19.93C11.87 19.93 11.6 20.01 11.35 20.14C11.1 20.27 10.89 20.46 10.73 20.7L10.5 21.03C10.32 21.28 10.1 21.5 9.85 21.67C9.59 21.83 9.3 21.94 9 22C8.87 22.01 8.73 22.01 8.6 22ZM4.4 11.62C4.96 11.82 5.47 12.15 5.88 12.58C6.3 13.02 6.6 13.54 6.78 14.12L6.78 14.24C6.99 14.83 7.06 15.47 6.98 16.1C6.9 16.73 6.67 17.33 6.32 17.86C6.25 17.92 6.22 18.02 6.22 18.11C6.22 18.2 6.25 18.3 6.32 18.37L8.47 20C8.49 20.02 8.53 20.03 8.56 20.04C8.59 20.05 8.63 20.05 8.67 20.04C8.7 20.04 8.73 20.02 8.76 20C8.79 19.98 8.82 19.96 8.84 19.93L9.07 19.6C9.41 19.09 9.88 18.68 10.42 18.4C10.96 18.12 11.56 17.97 12.17 17.97C12.77 17.97 13.38 18.12 13.91 18.4C14.45 18.68 14.92 19.09 15.27 19.6L15.39 19.78C15.43 19.84 15.49 19.88 15.57 19.9C15.6 19.9 15.63 19.9 15.67 19.89C15.7 19.88 15.73 19.87 15.76 19.85L17.82 18.29C17.89 18.23 17.93 18.15 17.95 18.05C17.96 17.96 17.94 17.87 17.89 17.79L17.62 17.42C17.29 16.92 17.06 16.36 16.97 15.77C16.88 15.17 16.92 14.57 17.1 14C17.27 13.39 17.59 12.84 18.02 12.39C18.46 11.93 18.99 11.59 19.59 11.39L19.79 11.32C19.87 11.28 19.94 11.22 19.97 11.13C20.01 11.05 20.01 10.96 19.98 10.88L19.2 8.39C19.18 8.34 19.15 8.3 19.11 8.27C19.08 8.24 19.04 8.21 19 8.2C18.97 8.18 18.93 8.17 18.9 8.17C18.87 8.17 18.83 8.18 18.81 8.2L18.46 8.31C17.89 8.49 17.28 8.54 16.68 8.44C16.08 8.34 15.52 8.1 15.04 7.74L15 7.65C14.53 7.29 14.16 6.84 13.9 6.32C13.64 5.8 13.5 5.23 13.51 4.65L13.51 4.34C13.51 4.24 13.47 4.15 13.41 4.08C13.35 4.02 13.27 3.99 13.2 4L10.66 4C10.61 4 10.57 4.01 10.54 4.03C10.5 4.04 10.47 4.07 10.44 4.1C10.41 4.13 10.39 4.17 10.38 4.2C10.37 4.24 10.36 4.28 10.37 4.33L10.37 4.58C10.37 5.17 10.23 5.76 9.96 6.3C9.7 6.83 9.32 7.3 8.85 7.67L8.72 7.77C8.2 8.15 7.61 8.41 6.97 8.51C6.34 8.62 5.69 8.56 5.09 8.35C5.04 8.34 4.99 8.34 4.94 8.35C4.89 8.39 4.85 8.44 4.83 8.51L4 11.12C3.97 11.2 3.97 11.3 4.01 11.38C4.05 11.47 4.13 11.53 4.21 11.57L4.4 11.62Z" fill="#000000" fill-opacity="1.000000" fill-rule="nonzero"/>
		<path id="Vector" d="M12 15.5C11.3 15.5 10.63 15.29 10.05 14.91C9.47 14.52 9.03 13.97 8.76 13.33C8.5 12.69 8.43 11.99 8.56 11.31C8.7 10.63 9.03 10.01 9.52 9.52C10.01 9.03 10.63 8.7 11.31 8.56C11.99 8.43 12.69 8.5 13.33 8.76C13.97 9.03 14.52 9.47 14.91 10.05C15.29 10.63 15.5 11.3 15.5 12C15.5 12.92 15.13 13.81 14.47 14.47C13.81 15.13 12.92 15.5 12 15.5ZM12 10.5C11.7 10.5 11.41 10.58 11.16 10.75C10.92 10.91 10.72 11.15 10.61 11.42C10.5 11.7 10.47 12 10.52 12.29C10.58 12.58 10.72 12.85 10.93 13.06C11.14 13.27 11.41 13.41 11.7 13.47C11.99 13.52 12.29 13.49 12.57 13.38C12.84 13.27 13.08 13.08 13.24 12.83C13.41 12.58 13.5 12.29 13.5 12C13.5 11.6 13.34 11.22 13.06 10.93C12.77 10.65 12.39 10.5 12 10.5Z" fill="#000000" fill-opacity="1.000000" fill-rule="nonzero"/>
	</g>
</svg>
