<svg width="24.000000" height="24.000000" viewBox="0 0 24 24" fill="none" xmlns="http://www.w3.org/2000/svg" xmlns:xlink="http://www.w3.org/1999/xlink">
	<desc>
			Created with Pixso.
	</desc>
	<defs>
		<clipPath id="clip5661_2031">
			<rect id="settings" width="24.000000" height="24.000000" fill="white" fill-opacity="0"/>
		</clipPath>
	</defs>
	<rect id="settings" width="24.000000" height="24.000000" fill="#FFFFFF" fill-opacity="0"/>
	<g clip-path="url(#clip5661_2031)">
		<g opacity="0.000000">
			<path id="Vector" d="M0 0L24 0L24 24L0 24L0 0Z" fill="#000000" fill-opacity="1.000000" fill-rule="evenodd"/>
		</g>
		<path id="Vector" d="M13.5 12C13.5 12.82 12.82 13.5 12 13.5C11.17 13.5 10.5 12.82 10.5 12C10.5 11.17 11.17 10.5 12 10.5C12.82 10.5 13.5 11.17 13.5 12Z" fill="#000000" fill-opacity="1.000000" fill-rule="evenodd"/>
		<path id="Vector" d="M21.89 10.32L21.1 7.8C21.01 7.5 20.87 7.23 20.67 7C20.48 6.76 20.24 6.57 19.98 6.43C19.71 6.29 19.41 6.2 19.11 6.18C18.81 6.15 18.5 6.19 18.21 6.29L17.87 6.4C17.61 6.48 17.33 6.51 17.05 6.46C16.77 6.41 16.51 6.3 16.29 6.14L16.18 6.06C15.96 5.89 15.78 5.67 15.66 5.42C15.54 5.17 15.48 4.9 15.49 4.63L15.49 4.35C15.49 3.72 15.25 3.11 14.81 2.67C14.6 2.45 14.35 2.29 14.07 2.17C13.8 2.06 13.5 2 13.21 2L10.66 2C10.04 2 9.46 2.25 9.03 2.69C8.6 3.12 8.36 3.71 8.37 4.33L8.37 4.57C8.36 4.86 8.3 5.14 8.17 5.4C8.05 5.66 7.86 5.89 7.64 6.08L7.51 6.18C7.25 6.36 6.96 6.49 6.65 6.54C6.34 6.59 6.02 6.57 5.73 6.47C5.45 6.37 5.16 6.33 4.87 6.35C4.58 6.37 4.3 6.45 4.05 6.59C3.78 6.72 3.54 6.9 3.35 7.13C3.15 7.36 3.01 7.63 2.93 7.92L2.1 10.52C1.91 11.1 1.96 11.74 2.24 12.29C2.52 12.84 3 13.26 3.59 13.46L3.75 13.46C4.01 13.56 4.26 13.72 4.45 13.93C4.65 14.14 4.79 14.4 4.87 14.68L4.92 14.84C5.04 15.14 5.07 15.47 5.03 15.79C4.99 16.12 4.88 16.43 4.69 16.7C4.33 17.2 4.17 17.83 4.26 18.45C4.35 19.06 4.68 19.62 5.19 20L7.26 21.57C7.65 21.85 8.12 22 8.6 22C8.73 22.01 8.87 22.01 9 22C9.3 21.94 9.58 21.82 9.83 21.65C10.09 21.47 10.3 21.25 10.47 21L10.7 20.67C10.86 20.43 11.07 20.24 11.32 20.11C11.57 19.98 11.84 19.9 12.13 19.9C12.42 19.89 12.71 19.96 12.98 20.09C13.24 20.23 13.46 20.43 13.63 20.68L13.75 20.85C13.92 21.1 14.14 21.31 14.39 21.48C14.65 21.65 14.94 21.76 15.24 21.81C15.54 21.86 15.85 21.84 16.15 21.77C16.44 21.69 16.72 21.56 16.96 21.38L19 19.86C19.48 19.48 19.79 18.94 19.89 18.34C19.98 17.74 19.84 17.13 19.5 16.62L19.24 16.25C19.08 16 18.98 15.73 18.93 15.45C18.89 15.16 18.91 14.87 19 14.6C19.08 14.3 19.23 14.03 19.44 13.81C19.65 13.58 19.91 13.41 20.2 13.32L20.41 13.25C20.98 13.04 21.46 12.63 21.74 12.08C22.01 11.53 22.07 10.9 21.89 10.32ZM12 15.5C11.3 15.5 10.63 15.29 10.05 14.91C9.47 14.52 9.03 13.97 8.76 13.33C8.5 12.69 8.43 11.99 8.56 11.31C8.7 10.63 9.03 10.01 9.52 9.52C10.01 9.03 10.63 8.7 11.31 8.56C11.99 8.43 12.69 8.5 13.33 8.76C13.97 9.03 14.52 9.47 14.91 10.05C15.29 10.63 15.5 11.3 15.5 12C15.5 12.92 15.13 13.81 14.47 14.47C13.81 15.13 12.92 15.5 12 15.5Z" fill="#000000" fill-opacity="1.000000" fill-rule="nonzero"/>
	</g>
</svg>
