<svg width="24.000000" height="24.000000" viewBox="0 0 24 24" fill="none" xmlns="http://www.w3.org/2000/svg" xmlns:xlink="http://www.w3.org/1999/xlink">
	<desc>
			Created with Pixso.
	</desc>
	<defs>
		<clipPath id="clip5928_5119">
			<rect id="star" width="24.000000" height="24.000000" fill="white" fill-opacity="0"/>
		</clipPath>
	</defs>
	<rect id="star" width="24.000000" height="24.000000" fill="#FFFFFF" fill-opacity="0"/>
	<g clip-path="url(#clip5928_5119)">
		<g opacity="0.000000">
			<path id="Vector" d="M24 0L24 24L0 24L0 0L24 0Z" fill="#000000" fill-opacity="1.000000" fill-rule="evenodd"/>
		</g>
		<path id="Vector" d="M17.56 21C17.4 21 17.24 20.96 17.1 20.89L12 18.21L6.9 20.89C6.73 20.97 6.54 21.01 6.36 21C6.17 20.98 5.99 20.92 5.84 20.81C5.69 20.7 5.57 20.55 5.5 20.37C5.43 20.2 5.41 20.01 5.45 19.83L6.45 14.2L2.33 10.2C2.2 10.07 2.11 9.91 2.06 9.73C2.02 9.55 2.02 9.37 2.08 9.2C2.13 9.02 2.24 8.86 2.38 8.74C2.53 8.62 2.7 8.54 2.89 8.51L8.59 7.68L11.1 2.55C11.18 2.39 11.3 2.24 11.46 2.14C11.62 2.04 11.81 1.99 12 1.99C12.18 1.99 12.37 2.04 12.53 2.14C12.69 2.24 12.81 2.39 12.9 2.55L15.44 7.67L21.14 8.5C21.32 8.53 21.49 8.61 21.64 8.73C21.78 8.85 21.89 9.01 21.95 9.18C22 9.36 22 9.54 21.96 9.72C21.91 9.9 21.82 10.06 21.7 10.18L17.58 14.19L18.58 19.82C18.61 20 18.59 20.2 18.52 20.37C18.45 20.55 18.33 20.7 18.18 20.82C17.99 20.94 17.78 21.01 17.56 21Z" fill="#000000" fill-opacity="1.000000" fill-rule="nonzero"/>
	</g>
</svg>
