<svg width="24.000000" height="16.000000" viewBox="0 0 24 16" fill="none" xmlns="http://www.w3.org/2000/svg" xmlns:xlink="http://www.w3.org/1999/xlink">
	<desc>
			Created with Pixso.
	</desc>
	<defs>
		<clipPath id="clip5661_2015">
			<rect id="stripe-svgrepo-com (4)" width="24.000000" height="16.000000" fill="white" fill-opacity="0"/>
		</clipPath>
	</defs>
	<rect id="stripe-svgrepo-com (4)" width="24.000000" height="16.000000" fill="#FFFFFF" fill-opacity="0"/>
	<g clip-path="url(#clip5661_2015)">
		<path id="Vector" d="M22.08 0L1.91 0C0.85 0 0 0.83 0 1.87L0 14.12C0 15.16 0.85 16 1.91 16L22.08 16C23.14 16 24 15.16 24 14.12L24 1.87C24 0.83 23.14 0 22.08 0Z" fill="#FFFFFF" fill-opacity="1.000000" fill-rule="nonzero"/>
		<path id="Vector" d="M1.91 0L22.08 0C23.14 0 24 0.83 24 1.87L24 14.12C24 15.16 23.14 16 22.08 16L1.91 16C0.85 16 0 15.16 0 14.12L0 1.87C0 0.83 0.85 0 1.91 0ZM1.91 1L22.08 1Q22.21 1 22.32 1.03Q22.39 1.04 22.44 1.07Q22.53 1.1 22.61 1.16Q22.68 1.2 22.74 1.26Q22.88 1.4 22.94 1.56Q23 1.7 23 1.87L23 14.12Q23 14.29 22.94 14.43Q22.88 14.59 22.74 14.73Q22.68 14.79 22.61 14.83Q22.53 14.89 22.44 14.92Q22.39 14.95 22.32 14.96Q22.21 15 22.08 15L1.91 15Q1.78 15 1.67 14.96Q1.6 14.95 1.55 14.92Q1.46 14.89 1.38 14.83Q1.31 14.79 1.25 14.73Q1.11 14.59 1.05 14.43Q1 14.29 1 14.12L1 1.87Q1 1.7 1.05 1.56Q1.11 1.4 1.25 1.26Q1.31 1.2 1.38 1.16Q1.46 1.1 1.55 1.07Q1.6 1.04 1.67 1.03Q1.78 1 1.91 1Z" fill="#F3F3F3" fill-opacity="1.000000" fill-rule="evenodd"/>
		<path id="Vector" d="M12.72 5.35L11.5 5.61L11.5 4.62L12.72 4.37L12.72 5.35ZM15.26 5.9C14.78 5.9 14.47 6.12 14.31 6.27L14.24 5.97L13.17 5.97L13.17 11.62L14.39 11.37L14.39 10C14.57 10.12 14.82 10.3 15.25 10.3C16.12 10.3 16.91 9.6 16.91 8.07C16.91 6.66 16.11 5.9 15.26 5.9ZM14.97 9.24C14.68 9.24 14.51 9.13 14.39 9.01L14.39 7.21C14.51 7.07 14.69 6.97 14.97 6.97C15.41 6.97 15.71 7.47 15.71 8.1C15.71 8.75 15.41 9.24 14.97 9.24ZM20.74 8.12C20.74 6.88 20.14 5.9 18.99 5.9C17.83 5.9 17.13 6.88 17.13 8.11C17.13 9.56 17.96 10.3 19.14 10.3C19.72 10.3 20.16 10.17 20.49 9.99L20.49 9.02C20.16 9.18 19.78 9.28 19.3 9.28C18.83 9.28 18.41 9.12 18.36 8.55L20.73 8.55C20.73 8.52 20.73 8.46 20.73 8.39C20.74 8.3 20.74 8.18 20.74 8.12ZM18.34 7.66C18.34 7.11 18.68 6.88 18.98 6.88C19.28 6.88 19.59 7.11 19.59 7.66L18.34 7.66ZM11.5 5.98L12.72 5.98L12.72 10.22L11.5 10.22L11.5 5.98ZM10.12 5.98L10.2 6.34C10.48 5.81 11.05 5.92 11.21 5.98L11.21 7.09C11.06 7.04 10.57 6.97 10.28 7.35L10.28 10.22L9.07 10.22L9.07 5.98L10.12 5.98ZM7.77 4.93L6.58 5.18L6.58 9.06C6.58 9.78 7.12 10.31 7.84 10.31C8.23 10.31 8.52 10.23 8.69 10.15L8.69 9.16C8.53 9.23 7.76 9.45 7.76 8.73L7.76 7.01L8.69 7.01L8.69 5.98L7.76 5.98L7.77 4.93ZM4.9 6.95C4.64 6.95 4.48 7.02 4.48 7.21C4.48 7.42 4.75 7.51 5.08 7.62C5.62 7.8 6.34 8.04 6.34 8.94C6.34 9.81 5.64 10.31 4.63 10.31C4.22 10.31 3.76 10.22 3.31 10.03L3.31 8.88C3.72 9.1 4.23 9.26 4.63 9.26C4.91 9.26 5.1 9.19 5.1 8.97C5.1 8.74 4.81 8.64 4.46 8.51C3.93 8.32 3.26 8.08 3.26 7.27C3.26 6.41 3.91 5.9 4.9 5.9C5.3 5.9 5.7 5.96 6.1 6.12L6.1 7.26C5.73 7.06 5.27 6.95 4.9 6.95Z" fill="#6461FC" fill-opacity="1.000000" fill-rule="evenodd"/>
	</g>
</svg>
