<svg width="24.000000" height="24.000000" viewBox="0 0 24 24" fill="none" xmlns="http://www.w3.org/2000/svg" xmlns:xlink="http://www.w3.org/1999/xlink">
	<desc>
			Created with Pixso.
	</desc>
	<defs>
		<clipPath id="clip5661_1759">
			<rect id="trending-up-outline" width="24.000000" height="24.000000" fill="white" fill-opacity="0"/>
		</clipPath>
	</defs>
	<rect id="trending-up-outline" width="24.000000" height="24.000000" fill="#FFFFFF" fill-opacity="0"/>
	<g clip-path="url(#clip5661_1759)">
		<g opacity="0.000000">
			<path id="Vector" d="M0 24L0 0L24 0L24 24L0 24Z" fill="#000000" fill-opacity="1.000000" fill-rule="evenodd"/>
		</g>
		<path id="Vector" d="M21 7C21 6.93 21 6.85 21 6.79C20.99 6.73 20.97 6.67 20.95 6.62C20.92 6.57 20.89 6.52 20.86 6.48C20.82 6.41 20.77 6.35 20.72 6.31L20.6 6.24C20.54 6.19 20.47 6.16 20.41 6.14L20.2 6.14C20.14 6.08 20.07 6.03 20 6L15 6C14.73 6 14.48 6.1 14.29 6.29C14.1 6.48 14 6.73 14 7C14 7.26 14.1 7.51 14.29 7.7C14.48 7.89 14.73 8 15 8L17.83 8L13.83 12.71L9.51 10.14C9.3 10.01 9.06 9.97 8.82 10.01C8.59 10.05 8.38 10.17 8.23 10.36L3.23 16.36C3.14 16.46 3.08 16.57 3.04 16.7C3 16.82 2.99 16.96 3 17.09C3.01 17.22 3.05 17.35 3.11 17.46C3.17 17.58 3.25 17.68 3.36 17.77C3.53 17.91 3.76 18 4 18C4.14 18 4.29 17.96 4.42 17.9C4.55 17.84 4.67 17.75 4.77 17.64L9.22 12.3L13.49 14.86C13.69 14.98 13.93 15.02 14.16 14.98C14.39 14.94 14.6 14.82 14.76 14.65L19 9.7L19 12C19 12.26 19.1 12.51 19.29 12.7C19.48 12.89 19.73 13 20 13C20.26 13 20.51 12.89 20.7 12.7C20.89 12.51 21 12.26 21 12L21 7Z" fill="#000000" fill-opacity="1.000000" fill-rule="nonzero"/>
	</g>
</svg>
