<svg width="156.481689" height="36.000000" viewBox="0 0 156.482 36" fill="none" xmlns="http://www.w3.org/2000/svg" xmlns:xlink="http://www.w3.org/1999/xlink">
	<desc>
			Created with Pixso.
	</desc>
	<defs/>
	<path id="CUBATOR" d="M70.98 24.71C69.7 24.71 68.54 24.43 67.49 23.88Q66.61 23.4 65.93 22.71L65.93 22.71L65.93 22.71Q65.43 22.19 65.04 21.55Q64.84 21.21 64.69 20.85L64.69 20.85Q64.16 19.63 64.16 18.18Q64.16 16.68 64.72 15.44Q64.86 15.12 65.04 14.82Q65.48 14.1 66.06 13.53Q66.69 12.92 67.49 12.49Q67.72 12.36 67.96 12.26Q69.34 11.64 71 11.64Q72.64 11.64 73.96 12.22Q74.81 12.59 75.49 13.17L75.49 13.17Q75.87 13.49 76.19 13.88L74.32 15.61Q73.61 14.8 72.73 14.43Q72 14.13 71.15 14.13Q70.12 14.13 69.29 14.53L69.29 14.53Q69.17 14.59 69.06 14.66Q68.63 14.89 68.29 15.22Q67.9 15.59 67.62 16.08Q67.58 16.14 67.55 16.21L67.55 16.21Q67.11 17.08 67.11 18.18C67.11 18.96 67.28 19.66 67.62 20.27Q67.88 20.73 68.24 21.1Q68.6 21.46 69.06 21.71Q69.13 21.75 69.2 21.79Q70.06 22.22 71.15 22.22Q71.98 22.22 72.7 21.93Q73.6 21.56 74.32 20.72L76.19 22.45C75.59 23.19 74.84 23.75 73.96 24.13C73.07 24.52 72.08 24.71 70.98 24.71ZM136.22 24.71C134.92 24.71 133.73 24.43 132.68 23.86C131.63 23.3 130.81 22.52 130.21 21.53C129.62 20.54 129.33 19.42 129.33 18.18C129.33 16.94 129.62 15.82 130.21 14.84C130.81 13.84 131.63 13.06 132.68 12.49Q132.9 12.37 133.13 12.27L133.13 12.27L133.13 12.27Q134.54 11.64 136.22 11.64C137.53 11.64 138.71 11.92 139.75 12.49C140.8 13.06 141.62 13.84 142.22 14.84C142.82 15.82 143.12 16.94 143.12 18.18C143.12 19.42 142.82 20.54 142.22 21.53C141.62 22.52 140.8 23.3 139.75 23.86C138.71 24.43 137.53 24.71 136.22 24.71ZM83.65 24.71C81.85 24.71 80.45 24.21 79.44 23.21Q79.32 23.09 79.21 22.96L79.21 22.96Q77.94 21.49 77.94 18.93L77.94 11.86L80.86 11.86L80.86 18.83Q80.86 20.84 81.85 21.66Q82.53 22.22 83.67 22.22C84.58 22.22 85.28 21.95 85.76 21.41Q86.48 20.58 86.48 18.83L86.48 11.86L89.36 11.86L89.36 18.93C89.36 20.79 88.86 22.21 87.85 23.21C86.85 24.21 85.45 24.71 83.65 24.71ZM101.5 17.92C102.22 18.15 102.78 18.54 103.19 19.08C103.6 19.61 103.8 20.26 103.8 21.05Q103.8 21.97 103.4 22.66Q103.08 23.21 102.51 23.61C101.65 24.2 100.41 24.49 98.76 24.49L92.24 24.49L92.24 11.86L98.4 11.86C99.94 11.86 101.11 12.15 101.93 12.74C102.76 13.33 103.17 14.13 103.17 15.14C103.17 15.76 103.02 16.31 102.72 16.79C102.44 17.27 102.03 17.65 101.5 17.92ZM114.31 21.79L108.46 21.79L107.34 24.49L104.36 24.49L109.97 11.86L112.85 11.86L118.49 24.49L115.43 24.49L114.31 21.79ZM121.78 14.24L117.74 14.24L117.74 11.86L128.73 11.86L128.73 14.24L124.69 14.24L124.69 24.49L121.78 24.49L121.78 14.24ZM153.34 24.49L150.91 20.97L148.23 20.97L148.23 24.49L145.31 24.49L145.31 11.86L150.77 11.86Q152.44 11.86 153.67 12.42C154.5 12.79 155.13 13.32 155.58 14.01C156.02 14.69 156.24 15.5 156.24 16.44C156.24 17.38 156.02 18.19 155.56 18.88C155.11 19.55 154.48 20.07 153.65 20.43L156.48 24.49L153.34 24.49ZM95.14 14.06L95.14 17.04L98.04 17.04C98.76 17.04 99.31 16.91 99.68 16.66C100.05 16.41 100.24 16.03 100.24 15.54C100.24 15.05 100.05 14.68 99.68 14.44C99.31 14.19 98.76 14.06 98.04 14.06L95.14 14.06ZM136.22 22.22C136.97 22.22 137.64 22.05 138.24 21.71C138.84 21.37 139.31 20.88 139.64 20.27C139.99 19.66 140.17 18.96 140.17 18.18C140.17 17.39 139.99 16.7 139.64 16.08C139.31 15.47 138.84 14.99 138.24 14.66C137.64 14.31 136.97 14.13 136.22 14.13C135.48 14.13 134.81 14.31 134.21 14.66C133.61 14.99 133.13 15.47 132.78 16.08C132.45 16.7 132.28 17.39 132.28 18.18C132.28 18.96 132.45 19.66 132.78 20.27C133.13 20.88 133.61 21.37 134.21 21.71C134.81 22.05 135.48 22.22 136.22 22.22ZM153.29 16.44C153.29 15.73 153.06 15.19 152.61 14.82C152.15 14.43 151.48 14.24 150.61 14.24L148.23 14.24L148.23 18.65L150.61 18.65C151.48 18.65 152.15 18.45 152.61 18.07C153.06 17.68 153.29 17.14 153.29 16.44ZM113.39 19.57L111.4 14.73L109.4 19.57L113.39 19.57ZM98.55 22.29C99.31 22.29 99.89 22.17 100.27 21.91C100.67 21.66 100.87 21.27 100.87 20.74Q100.87 20.25 100.64 19.91Q100.14 19.17 98.55 19.17L95.14 19.17L95.14 22.29L98.55 22.29Z" fill="#FFFFFF" fill-opacity="1.000000" fill-rule="evenodd"/>
	<path id="IT" d="M2.91 11.87L0 11.87L0 24.47L2.91 24.47L2.91 11.87ZM4.47 14.25L8.5 14.25L8.5 24.47L11.41 24.47L11.41 14.25L15.44 14.25L15.44 11.87L4.47 11.87L4.47 14.25Z" fill="#FFFFFF" fill-opacity="1.000000" fill-rule="evenodd"/>
	<path id="IN" d="M36.65 11.87L33.74 11.87L33.74 24.47L36.65 24.47L36.65 11.87ZM51.2 24.47L51.2 11.87L48.32 11.87L48.32 19.52L42.06 11.87L39.64 11.87L39.64 24.47L42.52 24.47L42.52 16.82L48.81 24.47L51.2 24.47Z" fill="#FFFFFF" fill-opacity="1.000000" fill-rule="evenodd"/>
	<path id="path4" d="M34.98 6.53C36.06 6.53 36.94 7.41 36.94 8.49C36.94 9.57 36.06 10.45 34.98 10.45C33.9 10.45 33.02 9.57 33.02 8.49C33.02 7.41 33.9 6.53 34.98 6.53Z" fill="#F23D61" fill-opacity="1.000000" fill-rule="evenodd"/>
	<path id="path12" d="M19.49 16.03C20.6 16.03 21.51 16.91 21.51 17.99C21.51 19.08 20.6 19.95 19.49 19.95C18.37 19.95 17.47 19.08 17.47 17.99C17.47 16.91 18.37 16.03 19.49 16.03Z" fill="#FFFFFF" fill-opacity="1.000000" fill-rule="evenodd"/>
	<path id="Ellipse 2 (Stroke)" d="M42.47 34.5C51.59 34.5 58.97 27.11 58.97 18C58.97 8.88 51.59 1.5 42.47 1.5C33.36 1.5 25.97 8.88 25.97 18C25.97 27.11 33.36 34.5 42.47 34.5ZM42.47 36C52.41 36 60.47 27.94 60.47 18C60.47 8.05 52.41 0 42.47 0C32.53 0 24.47 8.05 24.47 18C24.47 27.94 32.53 36 42.47 36Z" fill="#FFFFFF" fill-opacity="1.000000" fill-rule="evenodd"/>
</svg>
